<?xml version="1.0" encoding="UTF-8"?>
<svg version="1.1" xmlns="http://www.w3.org/2000/svg" width="2000" height="2000">
<path d="M0 0 C1.15518918 0.90484792 2.29885406 1.8244206 3.4375 2.75 C4.07558594 3.26046875 4.71367188 3.7709375 5.37109375 4.296875 C7.31093054 6.32509764 8.03610012 7.16871888 8 10 C6.44014712 12.0583941 4.94003168 13.7545147 3.125 15.5625 C2.09648866 16.63174447 1.07048597 17.70340712 0.046875 18.77734375 C-0.46939453 19.31601074 -0.98566406 19.85467773 -1.51757812 20.40966797 C-3.67230186 22.72124083 -5.64807396 25.16085283 -7.625 27.625 C-10.48881783 31.18184136 -13.42346328 34.62539052 -16.5 38 C-19.59555196 41.39598682 -22.55151207 44.86171531 -25.4375 48.4375 C-29.29708603 53.20996203 -33.37199991 57.73109109 -37.52734375 62.24609375 C-40.74709519 65.83207284 -43.75905176 69.56701492 -46.78515625 73.31640625 C-48.95632827 75.94708557 -51.20241357 78.47942424 -53.5 81 C-56.61458668 84.41739372 -59.5918662 87.9052235 -62.5 91.5 C-66.11032442 95.96276213 -69.88427929 100.22719533 -73.75 104.46875 C-76.07862053 107.0884481 -78.29562947 109.7751531 -80.5 112.5 C-84.11149134 116.96420457 -87.88660694 121.23002114 -91.75390625 125.47265625 C-94.06187598 128.06962393 -96.25555863 130.73404013 -98.4375 133.4375 C-102.29708603 138.20996203 -106.37199991 142.73109109 -110.52734375 147.24609375 C-113.74709519 150.83207284 -116.75905176 154.56701492 -119.78515625 158.31640625 C-121.95632827 160.94708557 -124.20241357 163.47942424 -126.5 166 C-129.61458668 169.41739372 -132.5918662 172.9052235 -135.5 176.5 C-139.11032442 180.96276213 -142.88427929 185.22719533 -146.75 189.46875 C-149.07862053 192.0884481 -151.29562947 194.7751531 -153.5 197.5 C-157.11149134 201.96420457 -160.88660694 206.23002114 -164.75390625 210.47265625 C-167.06187598 213.06962393 -169.25555863 215.73404013 -171.4375 218.4375 C-175.29708603 223.20996203 -179.37199991 227.73109109 -183.52734375 232.24609375 C-186.74709519 235.83207284 -189.75905176 239.56701492 -192.78515625 243.31640625 C-194.95632827 245.94708557 -197.20241357 248.47942424 -199.5 251 C-202.61458668 254.41739372 -205.5918662 257.9052235 -208.5 261.5 C-212.11032442 265.96276213 -215.88427929 270.22719533 -219.75 274.46875 C-222.07862053 277.0884481 -224.29562947 279.7751531 -226.5 282.5 C-230.11149134 286.96420457 -233.88660694 291.23002114 -237.75390625 295.47265625 C-240.06187598 298.06962393 -242.25555863 300.73404013 -244.4375 303.4375 C-248.3631314 308.29288621 -252.49451245 312.91356416 -256.73828125 317.4921875 C-257.48464844 318.31976562 -258.23101563 319.14734375 -259 320 C-259.7014917 320.74668945 -260.4029834 321.49337891 -261.12573242 322.26269531 C-263.41652944 325.60832721 -263.42028625 327.2929089 -263.25 331.3046875 C-263.21583984 332.52067627 -263.18167969 333.73666504 -263.14648438 334.98950195 C-263.09814453 336.27171631 -263.04980469 337.55393066 -263 338.875 C-262.59530617 362.42095426 -270.04647214 382.17201667 -286.1875 399.625 C-303.70072741 416.11267806 -324.97807647 422.52075575 -348.62890625 422.22265625 C-352.13682136 422.11603949 -355.27113693 421.50434471 -358.6875 420.6875 C-363.56926508 420.12742153 -366.1128265 422.18249015 -369.79370117 425.07128906 C-372.60467339 427.42294348 -375.34619393 429.84445266 -378.0703125 432.29589844 C-380.74218034 434.65541735 -383.5297749 436.78921135 -386.375 438.9375 C-387.42042969 439.73542969 -388.46585938 440.53335937 -389.54296875 441.35546875 C-390.36740479 441.98461182 -390.36740479 441.98461182 -391.20849609 442.62646484 C-394.71596925 445.3156232 -398.20036641 448.03455409 -401.6875 450.75 C-402.44627441 451.34071289 -403.20504883 451.93142578 -403.98681641 452.54003906 C-405.54188812 453.75073842 -407.0969006 454.96151386 -408.65185547 456.17236328 C-410.98697983 457.98986598 -413.3233471 459.80575788 -415.66015625 461.62109375 C-416.42150879 462.212854 -417.18286133 462.80461426 -417.96728516 463.41430664 C-419.47786773 464.58771426 -420.98924956 465.76009375 -422.50146484 466.93139648 C-426.05065758 469.68470252 -429.57959409 472.45703875 -433.06640625 475.2890625 C-433.70094727 475.80057861 -434.33548828 476.31209473 -434.98925781 476.83911133 C-436.16543285 477.78959558 -437.33584252 478.74728036 -438.49902344 479.71362305 C-443.99279431 484.13727785 -443.99279431 484.13727785 -448 484 C-450.15625 482.2109375 -450.15625 482.2109375 -452.5 479.375 C-458.77319896 472.04793996 -465.60892749 465.33244442 -472.47460938 458.56396484 C-477.0068228 454.07290755 -481.40515332 449.54753999 -485.53613281 444.68261719 C-486.96003626 443.04593564 -488.44808706 441.51487997 -490 440 C-488.34814194 436.08273661 -485.69575715 433.10911994 -482.9375 429.9375 C-481.93544131 428.77018032 -480.93414971 427.60220174 -479.93359375 426.43359375 C-479.43585449 425.85335449 -478.93811523 425.27311523 -478.42529297 424.67529297 C-476.41474314 422.3120876 -474.45585357 419.90856471 -472.5 417.5 C-468.75212202 412.8954642 -464.93016556 408.35980809 -461.0859375 403.8359375 C-458.18755177 400.4194046 -455.328449 396.97495162 -452.5 393.5 C-449.21176334 389.46016639 -445.87271846 385.46913868 -442.5 381.5 C-437.59396987 375.72477444 -432.76729455 369.89067683 -428 364 C-427.30447021 363.25854736 -426.60894043 362.51709473 -425.89233398 361.75317383 C-423.55446407 358.35178575 -423.58201245 356.59795747 -423.75 352.51171875 C-423.78416016 351.25568848 -423.81832031 349.9996582 -423.85351562 348.70556641 C-423.87841064 348.04888977 -423.90330566 347.39221313 -423.92895508 346.71563721 C-424.69757664 324.7736048 -420.25424 304.64925996 -405 288 C-404.17628906 287.09636719 -403.35257813 286.19273437 -402.50390625 285.26171875 C-387.65649515 269.69826229 -368.03907924 260.68208539 -346.4921875 259.91015625 C-342.43339406 259.85690677 -338.67972894 259.86725294 -334.6796875 260.6484375 C-328.31031627 261.8137317 -328.31031627 261.8137317 -322.23681641 260.046875 C-318.41172445 257.27819632 -315.09437466 253.96880038 -311.74121094 250.65771484 C-309.03181791 248.07824503 -306.09618125 245.82956006 -303.125 243.5625 C-297.94476272 239.54539749 -292.83075996 235.45469593 -287.75 231.3125 C-282.74348218 227.23134352 -277.7231393 223.1702872 -272.671875 219.14453125 C-269.8770181 216.90129084 -267.09806375 214.63935364 -264.3203125 212.375 C-258.5848491 207.70005625 -252.83154637 203.05469359 -247 198.5 C-239.24569677 192.4407773 -231.62332184 186.22267323 -224 180 C-215.81358661 173.31769318 -207.61093609 166.66608723 -199.28417969 160.15917969 C-192.10866286 154.53950615 -185.06035472 148.76314122 -178 143 C-169.81522419 136.31902989 -161.6159627 129.6663024 -153.28857422 123.16357422 C-148.12351988 119.12065899 -143.03982866 114.98138149 -137.95874023 110.83374023 C-133.69689091 107.36106518 -129.39868899 103.94173694 -125.0625 100.5625 C-119.05704749 95.87934896 -113.18149691 91.04918345 -107.31665039 86.19165039 C-102.37465665 82.10748266 -97.36774396 78.12108479 -92.30859375 74.18359375 C-87.63900827 70.53514769 -83.06363521 66.77981058 -78.5 63 C-72.80855537 58.28696152 -67.06675353 53.65546999 -61.23828125 49.11328125 C-56.77910835 45.63146131 -52.38260975 42.07757644 -48 38.5 C-43.06057978 34.46789256 -38.09184361 30.4818447 -33.0625 26.5625 C-26.95125398 21.79765027 -20.97148277 16.88246127 -15.00244141 11.94116211 C-10.07312004 7.86606649 -5.09796596 3.8634158 0 0 Z " fill="#16a34a" transform="translate(1467,1224)"/>
<path d="M0 0 C3.09363269 1.81980744 4.26264174 4.86951346 5.79589844 7.98657227 C6.15709274 8.69361801 6.51828705 9.40066376 6.89042664 10.12913513 C8.07101705 12.44974101 9.23085368 14.78001565 10.38964844 17.11157227 C11.20437207 18.72923797 12.01988898 20.34650438 12.83618164 21.96337891 C14.84778595 25.95859125 16.84072208 29.96277269 18.82672119 33.97076416 C19.76604829 35.86263312 20.71278869 37.75081738 21.66064453 39.63842773 C36.45466868 69.11020737 48.5138837 99.83336428 58.88964844 131.11157227 C59.25823975 132.2224823 59.25823975 132.2224823 59.63427734 133.35583496 C61.11951289 137.84682436 62.5830077 142.34423739 64.02059937 146.85070801 C64.4708789 148.26181103 64.92381369 149.67206983 65.37954712 151.0814209 C66.00457465 153.02286544 66.61352468 154.96946398 67.22167969 156.91625977 C67.56948486 158.01953613 67.91729004 159.1228125 68.27563477 160.25952148 C68.89693229 163.14540525 68.70105626 164.36594461 67.88964844 167.11157227 C66.19713212 167.56523643 64.50461579 168.01890059 62.81209946 168.4725647 C61.24930186 168.89145895 59.68650431 169.31035341 58.12370682 169.72924805 C53.53321201 170.95969095 48.94271612 172.19012984 44.35221863 173.42056274 C34.78075275 175.98609437 25.20929491 178.55165598 15.63786888 181.11733627 C10.01997736 182.62324563 4.40207997 184.12913308 -1.21582031 185.63500977 C-2.35818272 185.94122002 -3.50054512 186.24743027 -4.67752457 186.56291962 C-20.64078114 190.84182796 -36.60432215 195.11967351 -52.56808662 199.39668655 C-59.0457207 201.13222221 -65.52329764 202.86797109 -72.00087261 204.60372734 C-77.13088491 205.97836381 -82.26093585 207.35285573 -87.39108276 208.72698975 C-92.22362883 210.02141347 -97.05608021 211.31619004 -101.88845634 212.61124802 C-103.73979233 213.10735239 -105.59115725 213.6033488 -107.44255257 214.09923172 C-117.31470819 216.74362425 -127.18369384 219.39903509 -137.04589844 222.08032227 C-137.91832058 222.31724792 -138.79074272 222.55417358 -139.6896019 222.79827881 C-143.81338754 223.91818565 -147.93653205 225.0403303 -152.05841064 226.16723633 C-153.50375466 226.56024855 -154.9491265 226.95315848 -156.39453125 227.34594727 C-157.64933289 227.68851563 -158.90413452 228.03108398 -160.19696045 228.3840332 C-163.11035156 229.11157227 -163.11035156 229.11157227 -165.11035156 229.11157227 C-165.44131836 228.17289307 -165.77228516 227.23421387 -166.11328125 226.26708984 C-175.64936499 199.28235612 -185.91477347 172.79847873 -198.04785156 146.86157227 C-198.3651825 146.18276001 -198.68251343 145.50394775 -199.00946045 144.80456543 C-202.1933472 138.01594643 -205.40395483 131.29144558 -209.26489258 124.85473633 C-210.11035156 123.11157227 -210.11035156 123.11157227 -210.11035156 120.11157227 C-99.61035156 56.36157227 -99.61035156 56.36157227 -96.35986328 54.48632812 C-94.19478086 53.23721708 -92.02974174 51.98803097 -89.86474609 50.73876953 C-84.4241945 47.59954917 -78.98287941 44.46166664 -73.54003906 41.32641602 C-64.07102296 35.87035174 -54.60507626 30.41001691 -45.17236328 24.89135742 C-41.23688964 22.59026668 -37.2960089 20.29850417 -33.35546875 18.00610352 C-31.03538143 16.65161378 -28.71835398 15.29268268 -26.40429688 13.92797852 C-23.19165285 12.03348622 -19.97204256 10.15133497 -16.74798584 8.27633667 C-15.49755076 7.54615811 -14.24965812 6.81160672 -13.00445557 6.07254028 C-11.2704398 5.04417415 -9.52652137 4.03256145 -7.78222656 3.02172852 C-6.78288086 2.43528564 -5.78353516 1.84884277 -4.75390625 1.24462891 C-2.11035156 0.11157227 -2.11035156 0.11157227 0 0 Z " fill="#16a34a" transform="translate(1919.1103515625,1190.888427734375)"/>
<path d="M0 0 C6.68933509 3.21067403 11.14962748 9.09560654 15.92578125 14.64453125 C18.01423969 17.01617049 20.15503797 19.32866829 22.31176758 21.63793945 C27.30721688 26.98914776 32.08817221 32.4313909 36.671875 38.14453125 C38.81383966 40.77167247 41.01067731 43.33334508 43.23779297 45.88769531 C49.95923864 53.60965324 56.22702256 61.6203607 62.35986328 69.81542969 C63.92450545 71.89944549 65.50559149 73.9699376 67.08984375 76.0390625 C75.26133161 86.81668073 82.80386344 98.00632528 90.3125 109.25 C90.8244693 110.01486725 91.3364386 110.7797345 91.86392212 111.56777954 C97.13266525 119.4504531 102.31832579 127.37346545 107.23046875 135.484375 C107.61479568 136.11466614 107.99912262 136.74495728 108.39509583 137.39434814 C111 141.755861 111 141.755861 111 144 C110.27748047 144.41137207 109.55496094 144.82274414 108.81054688 145.24658203 C96.17548317 152.44409858 83.54821437 159.65173491 71 167 C62.3650412 172.05633807 53.69393663 177.04607133 45 182 C35.27875494 187.53985933 25.59105132 193.13374932 15.93310547 198.78344727 C5.40915375 204.93766742 -5.15380137 211.02369996 -15.71777344 217.10888672 C-21.14659942 220.23680148 -26.57319281 223.36858448 -32 226.5 C-34.16665583 227.75001879 -36.3333225 229.00001878 -38.5 230.25 C-40.10875 231.178125 -40.10875 231.178125 -41.75 232.125 C-45 234 -48.25 235.875 -51.5 237.75 C-53.11152954 238.67993774 -53.11152954 238.67993774 -54.75561523 239.62866211 C-56.90307609 240.86730215 -59.05101857 242.1051076 -61.19946289 243.34204102 C-66.29715774 246.27832255 -71.38934229 249.22317418 -76.4649353 252.19747925 C-78.87323876 253.60806667 -81.2842803 255.01393561 -83.69555664 256.41943359 C-85.40455557 257.41824587 -87.1095486 258.4239023 -88.81445312 259.4296875 C-89.84376953 260.02910156 -90.87308594 260.62851563 -91.93359375 261.24609375 C-93.2956897 262.04551392 -93.2956897 262.04551392 -94.68530273 262.86108398 C-97 264 -97 264 -100 264 C-101.2800293 262.36132812 -101.2800293 262.36132812 -102.57421875 260.03125 C-103.06881592 259.16177734 -103.56341309 258.29230469 -104.07299805 257.39648438 C-104.60578369 256.44064453 -105.13856934 255.48480469 -105.6875 254.5 C-120.16853779 229.25504874 -137.06426561 204.93330848 -155.68359375 182.5390625 C-156.28067139 181.81895996 -156.87774902 181.09885742 -157.49291992 180.35693359 C-158.6367311 178.98537732 -159.78885847 177.62069996 -160.95043945 176.26416016 C-161.46695068 175.64589355 -161.98346191 175.02762695 -162.515625 174.390625 C-162.97227539 173.85469727 -163.42892578 173.31876953 -163.89941406 172.76660156 C-165.44704731 170.28242362 -165.95265639 168.97761237 -166 166 C-164.29707308 163.3615409 -162.06095827 161.27901924 -159.81825256 159.09672546 C-159.1412373 158.41458365 -158.46422203 157.73244183 -157.76669115 157.02962905 C-155.48358301 154.73660028 -153.179616 152.46573622 -150.87524414 150.1940918 C-149.23865632 148.55919556 -147.60338687 146.92297867 -145.96934509 145.28553772 C-141.51995644 140.83442255 -137.05226646 136.40209061 -132.5811646 131.97280097 C-127.91529732 127.34435752 -123.26633588 122.69899805 -118.61558533 118.05537415 C-110.80469757 110.26003643 -102.98241167 102.47626632 -95.15258789 94.69995117 C-87.08730164 86.68972563 -79.02833125 78.67323235 -70.9777832 70.64819336 C-70.48167921 70.15366571 -69.98557522 69.65913806 -69.47443778 69.14962473 C-66.98570831 66.66872539 -64.49710259 64.18770194 -62.00855839 61.70661676 C-41.35819659 41.11847145 -20.68596147 20.55237492 0 0 Z " fill="#16a34a" transform="translate(1798,1030)"/>
<path d="M0 0 C13.6673897 58.8934407 23 118.38713205 23 179 C-54.55 179 -132.1 179 -212 179 C-214.22586634 165.64480198 -214.22586634 165.64480198 -215.0078125 159.578125 C-218.87890043 130.34367618 -224.02943927 101.24573812 -232.00537109 72.828125 C-232.2833252 71.82652344 -232.5612793 70.82492187 -232.84765625 69.79296875 C-233.09523682 68.9321167 -233.34281738 68.07126465 -233.59790039 67.18432617 C-234 65 -234 65 -233 62 C-230.41943359 60.97898865 -230.41943359 60.97898865 -226.8984375 60.05249023 C-226.2521961 59.87867073 -225.6059547 59.70485123 -224.94013023 59.52576447 C-222.75478173 58.9412544 -220.56506723 58.37514563 -218.375 57.80859375 C-216.80419149 57.39221808 -215.23369288 56.9746718 -213.66348267 56.55604553 C-210.25210298 55.64912788 -206.83873525 54.75026463 -203.42364502 53.85742188 C-197.94105275 52.42392385 -192.46311944 50.97317724 -186.98583984 49.51953125 C-181.15258619 47.97236106 -175.31896296 46.42663863 -169.48373413 44.88693237 C-154.91016315 41.04142275 -140.34663008 37.1595476 -125.7890625 33.25390625 C-124.74557459 32.97395121 -123.70208668 32.69399616 -122.62697792 32.40555763 C-118.42348944 31.27765193 -114.22006709 30.14950035 -110.01675129 29.02095127 C-102.74672944 27.06903312 -95.47600207 25.11976282 -88.20483398 23.17211914 C-70.92315987 18.54269356 -53.64241024 13.91012691 -36.37109375 9.2421875 C-35.10007812 8.8988739 -33.8290625 8.5555603 -32.51953125 8.20184326 C-26.92111073 6.68938482 -21.32338125 5.17447068 -15.72705078 3.65429688 C-13.87144109 3.1522631 -12.01581124 2.65030382 -10.16015625 2.1484375 C-8.93201454 1.81306473 -8.93201454 1.81306473 -7.67906189 1.47091675 C-2.22694733 0 -2.22694733 0 0 0 Z " fill="#16a34a" transform="translate(1994,1376)"/>
<path d="M0 0 C16.10651935 8.365231 31.16867597 18.57702853 46 29 C46.56428711 29.3933252 47.12857422 29.78665039 47.70996094 30.19189453 C64.69561466 42.03781155 81.0786918 54.76385017 97 68 C97.58749023 68.48839355 98.17498047 68.97678711 98.78027344 69.47998047 C105.22134413 74.85114782 111.55098535 80.33098748 117.7578125 85.97265625 C119.71208424 87.73967199 121.69059737 89.46913529 123.6875 91.1875 C130.29521362 96.93333793 136.61833076 103.00596731 143 109 C141.71632162 111.81657267 140.37994693 113.8694881 138.19265556 116.05344009 C137.61739659 116.63268116 137.04213762 117.21192223 136.44944656 117.80871606 C135.81715672 118.43518021 135.18486688 119.06164437 134.53341675 119.70709229 C133.86200531 120.38021257 133.19059387 121.05333286 132.49883664 121.74685073 C130.24337388 124.00561293 127.98082739 126.25714342 125.71826172 128.50878906 C124.10179422 130.12469254 122.48576674 131.74103629 120.87014771 133.35778809 C116.47817972 137.75033097 112.08006323 142.13667096 107.68084097 146.52194691 C103.08616197 151.10414134 98.49712891 155.69198291 93.90750122 160.27923584 C86.20180239 167.97942051 78.4926203 175.6761018 70.78076172 183.37011719 C62.83766339 191.29485639 54.89666917 199.22169426 46.95849609 207.15136719 C46.46915427 207.64018357 45.97981244 208.12899995 45.47564207 208.63262895 C43.02076126 211.08489967 40.56592177 213.53721175 38.11110282 215.98954439 C17.74713709 236.33277803 -2.62413939 256.6686806 -23 277 C-24.10359631 276.06950128 -25.204963 275.13635787 -26.30541992 274.20214844 C-26.91898849 273.68279724 -27.53255707 273.16344604 -28.16471863 272.62835693 C-31.09405343 270.02929898 -33.68579196 267.14919465 -36.3125 264.25 C-41.87478698 258.20543381 -47.57109535 252.31291599 -53.375 246.5 C-54.11145752 245.75911133 -54.84791504 245.01822266 -55.60668945 244.25488281 C-59.66482663 240.2072625 -63.8183568 236.33610985 -68.16015625 232.59472656 C-70.77010025 230.33249803 -73.28512478 227.97917048 -75.8125 225.625 C-81.35645729 220.50951891 -87.11867031 215.72446916 -93 211 C-94.38106598 209.87474972 -95.7612102 208.74836756 -97.140625 207.62109375 C-98.59373373 206.43487591 -100.04685869 205.24867793 -101.5 204.0625 C-102.19512695 203.49418457 -102.89025391 202.92586914 -103.60644531 202.34033203 C-104.26225586 201.80649902 -104.91806641 201.27266602 -105.59375 200.72265625 C-106.47063477 200.00734741 -106.47063477 200.00734741 -107.36523438 199.27758789 C-108.85614151 198.11242705 -110.42559817 197.04960122 -112 196 C-111.41086447 192.02489967 -110.17954805 189.19302975 -108.1484375 185.73828125 C-107.55224609 184.71541016 -106.95605469 183.69253906 -106.34179688 182.63867188 C-105.69275391 181.54103516 -105.04371094 180.44339844 -104.375 179.3125 C-103.69521082 178.15083078 -103.01618752 176.98871307 -102.33789062 175.82617188 C-100.92841697 173.41182554 -99.51567013 170.99944078 -98.10058594 168.58837891 C-94.86944479 163.07681417 -91.68727005 157.5370062 -88.5 152 C-87.25023053 149.83320035 -86.00022976 147.6665341 -84.75 145.5 C-84.13125 144.4275 -83.5125 143.355 -82.875 142.25 C-66 113 -49.125 83.75 -32.25 54.5 C-31.6305249 53.42613037 -31.0110498 52.35226074 -30.37280273 51.24584961 C-29.13052194 49.09278963 -27.88785012 46.93995522 -26.64477539 44.78735352 C-23.74163888 39.75898539 -20.84221133 34.72860186 -17.95724487 29.68978882 C-16.94122816 27.91567455 -15.92393072 26.14230081 -14.90625 24.36914062 C-13.63417708 22.15184686 -12.36447715 19.93318925 -11.09765625 17.71289062 C-7.61462045 11.64853829 -3.97151264 5.75719618 0 0 Z " fill="#16a34a" transform="translate(1642,906)"/>
<path d="M0 0 C11.26683293 2.6435879 22.22686157 5.85589283 33.1875 9.5625 C34.3509494 9.95358444 34.3509494 9.95358444 35.53790283 10.35256958 C77.44046954 24.45664431 118.10703459 41.81554969 157 62.875 C157.91394531 63.3687915 158.82789063 63.86258301 159.76953125 64.37133789 C165.87193982 67.74387963 165.87193982 67.74387963 167 70 C165.8828125 72.38476562 165.8828125 72.38476562 164.125 75.40625 C163.47708496 76.5293457 162.82916992 77.65244141 162.16162109 78.80957031 C161.44121912 80.03979459 160.72067499 81.26993563 160 82.5 C159.2643827 83.76876886 158.52952875 85.03798058 157.79541016 86.30761719 C156.27945361 88.92686352 154.75917272 91.54352472 153.23535156 94.15820312 C151.17365276 97.69767056 149.12731782 101.24564752 147.0859375 104.796875 C140.5502571 116.16572823 133.95971146 127.50158714 127.33935547 138.82128906 C122.84472573 146.52024834 118.41400101 154.25468246 114 162 C108.4599827 171.72115617 102.86625191 181.40894658 97.21655273 191.06689453 C92.97382721 198.32211736 88.7600339 205.59354142 84.5625 212.875 C83.94632813 213.94379395 83.33015625 215.01258789 82.6953125 216.11376953 C80.12093069 220.58072422 77.54774077 225.04836421 74.97558594 229.51660156 C73.61884742 231.87346291 72.26166779 234.23006924 70.90405273 236.58642578 C69.63453881 238.79006869 68.36576732 240.99413955 67.09790039 243.19873047 C63.46380304 249.50604177 59.76911153 255.77239786 56 262 C49.63681726 258.5202735 43.69311656 254.49615976 37.6875 250.4375 C27.61206525 243.68139981 17.4507392 237.15871463 7 231 C5.84129395 230.31357422 5.84129395 230.31357422 4.65917969 229.61328125 C-14.09589026 218.54968443 -33.50994238 208.69432986 -53 199 C-51.57269414 189.96806193 -49.30157639 181.21051765 -46.90625 172.3984375 C-46.48639386 170.84036543 -46.06695781 169.28218011 -45.64790344 167.72389221 C-44.50849807 163.4911144 -43.36373741 159.25980182 -42.21802139 155.02872849 C-41.00639156 150.55067722 -39.79954636 146.07133741 -38.5925293 141.59204102 C-38.09032707 139.72852811 -37.58811442 137.86501801 -37.08589172 136.00151062 C-36.83283075 135.06251104 -36.57976978 134.12351147 -36.3190403 133.15605736 C-35.53402127 130.2441545 -34.74836267 127.33242482 -33.96257019 124.42073059 C-30.21037065 110.51383917 -26.4809022 96.60096629 -22.76320267 82.68481445 C-21.86819433 79.33479593 -20.97278596 75.9848846 -20.07723999 72.63500977 C-19.48638876 70.4248048 -18.89553793 68.21459972 -18.3046875 66.00439453 C-17.86926353 64.37560804 -17.86926353 64.37560804 -17.42504311 62.71391678 C-15.9769974 57.29655327 -14.52984645 51.8789535 -13.08447266 46.46087646 C-11.71709591 41.33551239 -10.34706989 36.21086335 -8.97514915 31.08671379 C-8.46992067 29.19774525 -7.96566259 27.30851686 -7.46245766 25.41900826 C-6.77024973 22.8202336 -6.07461001 20.22240009 -5.37817383 17.62475586 C-5.18035561 16.878738 -4.98253738 16.13272015 -4.77872467 15.36409569 C-3.38149056 10.17257175 -1.74788764 5.08374865 0 0 Z " fill="#16a34a" transform="translate(1458,827)"/>
<path d="M0 0 C37.82747907 1.18210872 37.82747907 1.18210872 50.5625 2.25 C51.33240265 2.31280151 52.1023053 2.37560303 52.89553833 2.44030762 C90.76008421 5.56037944 128.31681138 11.37845371 165.375 19.75 C166.64738525 20.03149902 167.91977051 20.31299805 169.23071289 20.60302734 C170.37918701 20.87324707 171.52766113 21.1434668 172.7109375 21.421875 C173.71431152 21.65487305 174.71768555 21.88787109 175.75146484 22.12792969 C176.49348145 22.41571289 177.23549805 22.70349609 178 23 C179.33051551 26.99154653 178.20695872 29.85119039 177.12353516 33.76904297 C176.90974999 34.56803324 176.69596483 35.36702351 176.47570133 36.1902256 C175.75478544 38.87642691 175.02187551 41.55920947 174.2890625 44.2421875 C173.77186609 46.15991551 173.25542965 48.07784861 172.73970032 49.99597168 C171.33674998 55.20575414 169.92357425 60.41271443 168.50864792 65.61925507 C167.03431435 71.05134398 165.56936426 76.48596088 164.10375977 81.92041016 C161.96765756 89.83790708 159.8285694 97.75458637 157.68584538 105.67029381 C153.68467633 120.45229059 149.70646165 135.24036675 145.73828125 150.03125 C145.15620159 152.20037163 144.57410942 154.36948991 143.99200439 156.53860474 C142.85981917 160.75767314 141.7277132 164.9767628 140.59564209 169.19586182 C138.19062635 178.15857724 135.78504604 187.12113924 133.3755703 196.08265686 C132.89806417 197.85922916 132.420886 199.63588965 131.94405556 201.41264343 C131.29548836 203.82919461 130.64581545 206.24544579 129.99584961 208.66162109 C129.80646631 209.36827848 129.61708302 210.07493587 129.42196083 210.80300713 C128.67829448 213.56347762 127.90435722 216.28692833 127 219 C120.87425174 218.38742517 115.53252565 215.95909541 109.875 213.6875 C75.43814347 200.20695892 40.07481907 189.66584317 3.79882812 182.4296875 C2 182 2 182 0 181 C0 121.27 0 61.54 0 0 Z " fill="#16a34a" transform="translate(1260,798)"/>
<path d="M0 0 C0 58.41 0 116.82 0 177 C-14.55580819 175.88032245 -14.55580819 175.88032245 -20.65234375 175.09765625 C-22.02274687 174.92741539 -23.39319116 174.75750571 -24.76367188 174.58789062 C-26.81780923 174.33061489 -28.87154917 174.07104873 -30.92456055 173.80493164 C-56.66017456 170.48879614 -82.35759698 169.69428274 -108.26434326 169.8626709 C-111.86630734 169.88371126 -115.46830377 169.8923844 -119.0703125 169.90234375 C-126.04694809 169.92333369 -133.02346143 169.95712399 -140 170 C-144.26754689 155.25416529 -148.33307977 140.46317073 -152.28125 125.62890625 C-152.86346988 123.44713176 -153.44587137 121.26540573 -154.02844238 119.08372498 C-155.54668133 113.39644616 -157.06284723 107.70861699 -158.57843018 102.02062988 C-161.00195719 92.92650486 -163.42868357 83.83323314 -165.85545349 74.73997307 C-166.69014517 71.61113146 -167.52392704 68.48204864 -168.35754395 65.35292053 C-168.62041954 64.36738662 -168.88329514 63.3818527 -169.15413666 62.36645412 C-169.66907635 60.43518331 -170.18310105 58.50366826 -170.6961441 56.57189274 C-172.01496311 51.62127055 -173.36518687 46.68171254 -174.76000977 41.75192261 C-175.18600842 40.23363184 -175.18600842 40.23363184 -175.6206131 38.68466854 C-176.16466343 36.75080464 -176.71558413 34.81885642 -177.2743454 32.88919163 C-177.51578529 32.02788104 -177.75722519 31.16657045 -178.00598145 30.27915955 C-178.22260689 29.5227867 -178.43923233 28.76641386 -178.66242218 27.98712063 C-179 26 -179 26 -178 23 C-175.52625285 22.15841993 -173.20627226 21.53624894 -170.6640625 20.984375 C-169.89498062 20.8077684 -169.12589874 20.6311618 -168.33351135 20.44920349 C-165.76730975 19.86674855 -163.19687074 19.30685627 -160.625 18.75 C-159.73809479 18.55435455 -158.85118958 18.35870911 -157.93740845 18.15713501 C-106.30463065 6.79881176 -52.9095173 0 0 0 Z " fill="#16a34a" transform="translate(1240,798)"/>
<path d="M0 0 C3.65264997 11.3748808 6.71882143 22.89330441 9.796875 34.43359375 C10.35471209 36.51796423 10.91276089 38.60227807 11.4710083 40.6865387 C12.93647359 46.1602856 14.39902649 51.63480651 15.86096191 57.10949707 C17.32216837 62.57934076 18.7862111 68.04842508 20.25 73.51757812 C22.75513839 82.87867853 25.25636095 92.24081901 27.75579071 101.60344505 C29.16499792 106.88026093 30.577922 112.15605006 31.99670029 117.43030071 C32.76763152 120.29642864 33.5369172 123.1629968 34.30600739 126.02961922 C34.81235447 127.91396695 35.3212668 129.79762479 35.83026123 131.68125916 C36.12249573 132.77136795 36.41473022 133.86147675 36.71582031 134.98461914 C36.96664368 135.91552872 37.21746704 136.84643829 37.47589111 137.80555725 C38 140 38 140 38 142 C30.93772352 142.95129798 23.87517556 143.89511334 16.804245 144.77993774 C-22.4284976 149.70047947 -62.21020538 156.48713008 -99.72680664 169.32446289 C-103.06987673 170.4647698 -105.40612423 171 -109 171 C-109.35078613 170.36835937 -109.70157227 169.73671875 -110.06298828 169.0859375 C-117.11975136 156.39427938 -124.25887841 143.76263087 -131.60595703 131.23632812 C-136.12600174 123.52205165 -140.5747171 115.76881518 -145 108 C-152.24587058 95.28172829 -159.59619878 82.62712689 -167 70 C-163.59041064 66.09477009 -159.78458463 64.06863043 -155.23828125 61.76171875 C-154.08344238 61.16543922 -154.08344238 61.16543922 -152.90527344 60.55711365 C-150.37914457 59.25761709 -147.84659833 57.97137988 -145.3125 56.6875 C-144.00422745 56.02146759 -144.00422745 56.02146759 -142.66952515 55.34197998 C-99.85988176 33.5735037 -55.63148119 15.83065503 -9.57421875 2.16015625 C-8.8449971 1.94258163 -8.11577545 1.72500702 -7.36445618 1.50083923 C-2.24302939 0 -2.24302939 0 0 0 Z " fill="#16a34a" transform="translate(1042,827)"/>
<path d="M0 0 C3.1975539 2.9433916 5.27698333 5.88779138 7.3984375 9.671875 C8.03531494 10.79867676 8.67219238 11.92547852 9.32836914 13.08642578 C9.66160187 13.68295959 9.99483459 14.27949341 10.33816528 14.894104 C11.75326776 17.42708538 13.1826861 19.95188451 14.61140442 22.47720337 C15.34403576 23.77235575 16.07595513 25.06791111 16.80717468 26.36386108 C20.16887362 32.31759036 23.60507908 38.22637467 27.0625 44.125 C37.51960574 62.00013851 47.91694987 79.91062551 58 98 C55.44340897 100.55659103 52.60474177 101.46677413 49.2890625 102.72265625 C47.89514582 103.26170583 46.50126712 103.80085363 45.10742188 104.34008789 C44.37579834 104.62095245 43.6441748 104.90181702 42.89038086 105.19119263 C29.39160231 110.3830725 16.08182172 115.82303865 3 122 C2.05318359 122.44134277 1.10636719 122.88268555 0.13085938 123.33740234 C-27.15545007 136.06839477 -54.41211474 150.03853055 -78.79296875 167.83984375 C-81 169 -81 169 -82.78253174 168.90663147 C-86.07649279 167.55986642 -88.23781262 165.15369069 -90.68652344 162.65405273 C-91.24306107 162.09795319 -91.79959869 161.54185364 -92.3730011 160.96890259 C-94.20899358 159.13082172 -96.03413439 157.28234668 -97.859375 155.43359375 C-99.13095686 154.15641614 -100.40320311 152.87989969 -101.67608643 151.60401917 C-105.02329412 148.24536118 -108.36139483 144.87779136 -111.69769287 141.50830078 C-115.10421627 138.07108069 -118.51925585 134.64234523 -121.93359375 131.21289062 C-128.63076904 124.48354791 -135.31835621 117.74476188 -142 111 C-138.78932597 104.31066491 -132.90439346 99.85037252 -127.35546875 95.07421875 C-124.98374282 92.98568397 -122.67116064 90.84480903 -120.36181641 88.68798828 C-114.9886188 83.67206366 -109.52492142 78.86528275 -103.7890625 74.26171875 C-101.31325687 72.25402763 -98.88619867 70.19962163 -96.47045898 68.12036133 C-88.96488962 61.67372616 -81.16480851 55.66094751 -73.26123047 49.71240234 C-71.03772642 48.02856976 -68.83203078 46.32365973 -66.62890625 44.61328125 C-45.50544494 28.33689788 -22.98504904 13.51301055 0 0 Z " fill="#16a34a" transform="translate(857,906)"/>
<path d="M0 0 C3.88683547 1.59596984 6.36168405 4.10163686 9.31933594 7.04467773 C9.83685928 7.55709015 10.35438263 8.06950256 10.8875885 8.59744263 C12.59170848 10.28769474 14.28832981 11.98524195 15.984375 13.68359375 C17.16671088 14.86204254 18.34927021 16.04026717 19.53204346 17.21827698 C22.00671713 19.6854955 24.47748743 22.15654595 26.94580078 24.63012695 C30.11403634 27.80417092 33.29352147 30.9666746 36.47622299 34.12620449 C38.91946352 36.55474117 41.35577179 38.99013942 43.79010773 41.42759895 C44.95998902 42.59696584 46.13224509 43.76396178 47.30687714 44.92855644 C48.94457499 46.55396571 50.57250628 48.18856625 52.19824219 49.82592773 C53.12771667 50.7547728 54.05719116 51.68361786 55.01483154 52.64060974 C57 55 57 55 57 58 C54.99209427 59.63561926 53.02162742 61.06760024 50.875 62.5 C49.57494124 63.39832457 48.27681469 64.29945082 46.98046875 65.203125 C46.31450684 65.66654297 45.64854492 66.12996094 44.96240234 66.60742188 C30.37901991 76.95621678 16.43901326 88.7208532 3.32421875 100.85546875 C1.33020806 102.69532063 -0.69255178 104.48208607 -2.75 106.25 C-12.50486179 114.7582973 -21.83286805 123.74107136 -31 132.875 C-31.69343506 133.56384277 -32.38687012 134.25268555 -33.10131836 134.96240234 C-37.01942585 138.89232703 -40.75389199 142.92795369 -44.37890625 147.12939453 C-46.69792821 149.80535029 -49.0970114 152.39911822 -51.5 155 C-55.74109816 159.60324127 -59.91391066 164.25846288 -64 169 C-67.96723723 167.52724053 -71.52454876 165.65838949 -75.19140625 163.55078125 C-76.07033791 163.04722359 -76.07033791 163.04722359 -76.96702576 162.53349304 C-78.83394271 161.4628585 -80.69822099 160.38771995 -82.5625 159.3125 C-83.78694388 158.60973762 -85.011552 157.90726131 -86.23632812 157.20507812 C-93.84479711 152.83858796 -101.42857269 148.4304155 -109 144 C-107.8080946 140.10393948 -106.46599188 136.80390887 -104.26953125 133.375 C-103.72159912 132.51487305 -103.17366699 131.65474609 -102.60913086 130.76855469 C-102.01624268 129.85493164 -101.42335449 128.94130859 -100.8125 128 C-100.19318604 127.03739258 -99.57387207 126.07478516 -98.93579102 125.08300781 C-73.56632441 85.86087555 -45.353209 48.77408753 -13.48486328 14.59814453 C-10.91228879 11.82930655 -8.36317981 9.03899455 -5.8125 6.25 C-1.12924312 1.12924312 -1.12924312 1.12924312 0 0 Z " fill="#16a34a" transform="translate(700,1030)"/>
<path d="M0 0 C4.3582311 0.59593272 7.47072659 2.19276486 11.26171875 4.38671875 C11.85241653 4.72621048 12.44311432 5.06570221 13.05171204 5.41548157 C14.93416741 6.49962491 16.81078591 7.59345468 18.6875 8.6875 C19.92867631 9.40361935 21.17020994 10.11911979 22.41210938 10.83398438 C29.31781641 14.81742553 36.18109284 18.86951543 43 23 C41.63327941 25.92886183 40.05558276 28.39796827 38.0859375 30.95703125 C37.49780273 31.72805176 36.90966797 32.49907227 36.30371094 33.29345703 C35.66723633 34.12474121 35.03076172 34.95602539 34.375 35.8125 C22.21156444 51.88539989 10.62523054 68.31534773 0.37597656 85.68066406 C-1.08870803 88.1495256 -2.57811881 90.6023642 -4.0703125 93.0546875 C-17.72377638 115.63062777 -29.26452766 139.2861137 -40.59643555 163.08520508 C-42.03473545 166.07213543 -43.51026843 169.03843237 -45 172 C-50.12524666 171.36684209 -54.96530771 170.31839344 -59.9375 168.9375 C-60.62134766 168.75123047 -61.30519531 168.56496094 -62.00976562 168.37304688 C-63.67420293 167.91910943 -65.33725312 167.46009084 -67 167 C-68.59339691 162.9782411 -67.34868175 160.04666985 -66.078125 156.04296875 C-65.86272064 155.35634659 -65.64731628 154.66972443 -65.42538452 153.96229553 C-64.71156589 151.70025638 -63.98175987 149.44379413 -63.25 147.1875 C-62.74254144 145.60323313 -62.23521898 144.01892266 -61.72802734 142.43457031 C-48.70576242 101.9680931 -32.62017419 63.20781871 -13.6875 25.125 C-13.12490479 23.9903833 -12.56230957 22.8557666 -11.98266602 21.68676758 C-8.26312102 14.27669803 -4.26048716 7.11177947 0 0 Z " fill="#16a34a" transform="translate(580,1191)"/>
<path d="M0 0 C2.75008135 0.64548853 5.50006756 1.29137766 8.25 1.9375 C9.02730469 2.11990234 9.80460938 2.30230469 10.60546875 2.49023438 C11.35957031 2.66748047 12.11367188 2.84472656 12.890625 3.02734375 C13.92751465 3.27085571 13.92751465 3.27085571 14.98535156 3.51928711 C16.99399101 3.9985662 18.99756942 4.49546602 21 5 C20.41431266 9.11195001 19.48818969 12.77019928 18.03125 16.65625 C17.42869385 18.28965332 17.42869385 18.28965332 16.81396484 19.95605469 C16.38035645 21.12555664 15.94674805 22.29505859 15.5 23.5 C-1.11071621 69.27361091 -11.74908085 116.5356002 -17.4909668 164.83813477 C-17.58670486 165.63907562 -17.68244293 166.44001648 -17.78108215 167.26522827 C-17.9590333 168.76698072 -18.13321907 170.26918578 -18.30302429 171.7718811 C-18.89060365 176.78120729 -18.89060365 176.78120729 -20 179 C-20.99 179 -21.98 179 -23 179 C-23.70700949 118.65543111 -13.6964056 58.5634996 0 0 Z " fill="#16a34a" transform="translate(506,1376)"/>
</svg>
