<svg xmlns="http://www.w3.org/2000/svg" version="1.1" width="2000px" height="1527px" style="shape-rendering:geometricPrecision; text-rendering:geometricPrecision; image-rendering:optimizeQuality; fill-rule:evenodd; clip-rule:evenodd" xmlns:xlink="http://www.w3.org/1999/xlink" transform="rotate(0) scale(1, 1)">
<g><path style="opacity:0.994" fill="#16a34a" d="M 1221.5,110.5 C 1427.44,113.902 1596.27,193.902 1728,350.5C 1849.78,505.941 1894.78,681.608 1863,877.5C 1827.86,1055.09 1736.69,1195.59 1589.5,1299C 1435.82,1400.47 1268.49,1432.8 1087.5,1396C 914.665,1354.57 779.498,1260.07 682,1112.5C 592.84,969.369 561.84,814.369 589,647.5C 617.559,495.822 689.393,369.322 804.5,268C 924.518,166.367 1063.52,113.867 1221.5,110.5 Z M 906.5,248.5 C 964.578,268.693 1022.58,289.193 1080.5,310C 1059.98,368.214 1039.31,426.381 1018.5,484.5C 1001.82,478.494 985.158,472.494 968.5,466.5C 976.902,443.461 985.402,420.461 994,397.5C 995.15,395.246 995.484,392.913 995,390.5C 879.669,465.725 811.002,571.725 789,708.5C 787.637,718.126 786.804,727.792 786.5,737.5C 799.504,737.333 812.504,737.5 825.5,738C 846.374,744.238 854.54,758.072 850,779.5C 845.466,790.703 837.299,797.537 825.5,800C 812.504,800.5 799.504,800.667 786.5,800.5C 798.588,934.209 857.254,1042.04 962.5,1124C 1031.28,1175.1 1108.62,1204.27 1194.5,1211.5C 1194.33,1199.83 1194.5,1188.16 1195,1176.5C 1196.69,1157.48 1207.02,1147.14 1226,1145.5C 1240.62,1145.82 1250.62,1152.82 1256,1166.5C 1257.43,1181.44 1257.93,1196.44 1257.5,1211.5C 1389.33,1199.02 1495.83,1141.02 1577,1037.5C 1629.75,967.438 1659.59,888.438 1666.5,800.5C 1653.5,800.667 1640.5,800.5 1627.5,800C 1607.07,794.661 1598.57,781.494 1602,760.5C 1605.83,747.666 1614.33,740.166 1627.5,738C 1640.5,737.5 1653.5,737.333 1666.5,737.5C 1657.81,633.506 1618.65,543.173 1549,466.5C 1537.6,447.278 1541.1,431.445 1559.5,419C 1571.76,412.876 1583.43,413.876 1594.5,422C 1698.67,535.361 1743.84,669.195 1730,823.5C 1711.12,969.491 1643.62,1086.99 1527.5,1176C 1406.6,1263.12 1272.6,1293.12 1125.5,1266C 978.115,1232.54 865.615,1151.37 788,1022.5C 716.988,895.065 701.322,761.065 741,620.5C 780.976,493.886 857.476,396.052 970.5,327C 943.157,317.66 915.824,308.327 888.5,299C 894.602,282.193 900.602,265.36 906.5,248.5 Z M 1457.5,500.5 C 1479.02,500.19 1491.02,510.69 1493.5,532C 1493.28,538.651 1491.45,544.818 1488,550.5C 1422,617.167 1356,683.833 1290,750.5C 1298.72,786.227 1287.22,813.394 1255.5,832C 1215.18,845.922 1185.02,834.089 1165,796.5C 1157.04,776.287 1157.87,756.454 1167.5,737C 1126.28,696.112 1085.45,654.945 1045,613.5C 1035.26,597.218 1037.09,582.385 1050.5,569C 1062.92,560.77 1075.59,560.437 1088.5,568C 1132.17,612.333 1175.83,656.667 1219.5,701C 1227.71,701.408 1235.71,702.908 1243.5,705.5C 1309.82,639.678 1376.16,573.511 1442.5,507C 1447.14,503.74 1452.14,501.573 1457.5,500.5 Z"/></g>
<g><path style="opacity:0.978" fill="#16a34a" d="M 251.5,480.5 C 320.501,480.333 389.501,480.5 458.5,481C 477.505,485.848 486.005,498.014 484,517.5C 480.833,530 473,537.833 460.5,541C 390.167,541.667 319.833,541.667 249.5,541C 229.906,534.318 222.406,520.818 227,500.5C 231.884,489.662 240.051,482.995 251.5,480.5 Z"/></g>
<g><path style="opacity:0.981" fill="#16a34a" d="M 150.5,730.5 C 270.167,730.333 389.834,730.5 509.5,731C 529.479,736.775 537.312,749.941 533,770.5C 528.57,781.265 520.737,788.099 509.5,791C 389.833,791.667 270.167,791.667 150.5,791C 130.981,784.797 123.148,771.63 127,751.5C 131.629,740.693 139.463,733.693 150.5,730.5 Z"/></g>
<g><path style="opacity:0.978" fill="#16a34a" d="M 249.5,980.5 C 320.167,980.333 390.834,980.5 461.5,981C 479.259,986.661 486.759,998.828 484,1017.5C 479.973,1030.19 471.473,1038.03 458.5,1041C 389.5,1041.67 320.5,1041.67 251.5,1041C 231.989,1036.13 223.489,1023.63 226,1003.5C 229.761,991.571 237.595,983.904 249.5,980.5 Z"/></g>
</svg>