<?xml version="1.0" encoding="UTF-8"?>
<svg version="1.1" xmlns="http://www.w3.org/2000/svg" width="512" height="512">
<path d="M0 0 C4.0849868 2.17372922 7.89784395 4.69243043 11.73046875 7.27734375 C37.98781589 24.52303319 65.05257291 35.82514523 96.29296875 39.77734375 C104.35046041 40.81908332 111.94848558 41.83670761 117.765625 48.05078125 C120.94766944 52.25214355 122.22733092 55.74111441 122.24591064 60.92079163 C122.25162079 61.87494461 122.25733093 62.8290976 122.26321411 63.81216431 C122.26433197 64.85778534 122.26544983 65.90340637 122.26660156 66.98071289 C122.27156647 68.08365189 122.27653137 69.18659088 122.28164673 70.32295227 C122.29629338 73.98614116 122.30307857 77.64928658 122.30859375 81.3125 C122.31434816 83.86583965 122.32010586 86.41917929 122.3258667 88.97251892 C122.33504178 93.65370834 122.34133575 98.33488478 122.34436345 103.01608092 C122.34881737 109.86268989 122.36623436 116.70909654 122.39536405 123.55564409 C122.41981941 129.51484699 122.42731947 135.47400113 122.429039 141.43325615 C122.43204227 143.94990571 122.43999086 146.46655491 122.45322418 148.98317146 C122.61036497 181.19708452 116.80954013 207.88122449 96.10546875 233.27734375 C95.66219238 233.82745117 95.21891602 234.37755859 94.76220703 234.94433594 C72.15426649 262.84818458 29.72390322 296.87832907 -7.39453125 301.08984375 C-8.06484375 301.17878906 -8.73515625 301.26773437 -9.42578125 301.359375 C-45.37810823 300.16475654 -86.88531029 265.33512123 -110.45703125 240.58984375 C-135.4325286 213.22393741 -142.39519314 181.79248201 -142.29296875 145.7421875 C-142.29499399 143.20732032 -142.29790915 140.67245371 -142.30166626 138.1375885 C-142.30606114 132.85868813 -142.30003915 127.57990297 -142.28564453 122.30102539 C-142.26924965 116.21875263 -142.274673 110.13678061 -142.29112375 104.05451483 C-142.3064167 98.1614305 -142.30475214 92.2684389 -142.29597855 86.3753376 C-142.29398325 83.88392659 -142.29641217 81.39250784 -142.30341721 78.90110588 C-142.31105569 75.42466831 -142.29939663 71.94880687 -142.28271484 68.47241211 C-142.29182388 66.94261467 -142.29182388 66.94261467 -142.30111694 65.38191223 C-142.24180562 58.69279574 -141.63393528 52.63992973 -137.24609375 47.25390625 C-136.67632812 46.80789062 -136.1065625 46.361875 -135.51953125 45.90234375 C-134.95492187 45.44085938 -134.3903125 44.979375 -133.80859375 44.50390625 C-129.74914134 41.90254287 -125.76636829 40.97508798 -121.01953125 40.41796875 C-119.30987183 40.20370239 -119.30987183 40.20370239 -117.56567383 39.98510742 C-116.35419678 39.83404541 -115.14271973 39.6829834 -113.89453125 39.52734375 C-84.31001156 35.54272342 -57.7044908 24.79048253 -32.76953125 8.46484375 C-32.05901611 8.00005615 -31.34850098 7.53526855 -30.61645508 7.05639648 C-27.81503362 5.21597613 -25.02391928 3.36590267 -22.2578125 1.47265625 C-15.32910964 -2.93086406 -7.46656529 -3.59548299 0 0 Z M-17.41479492 37.68017578 C-46.62970469 55.9451738 -75.71891734 67.01955699 -109.89453125 72.27734375 C-109.89453125 98.34734375 -109.89453125 124.41734375 -109.89453125 151.27734375 C-77.22453125 151.27734375 -44.55453125 151.27734375 -10.89453125 151.27734375 C-10.89453125 112.66734375 -10.89453125 74.05734375 -10.89453125 34.27734375 C-13.28890129 34.27734375 -15.42270425 36.43283201 -17.41479492 37.68017578 Z M-9.89453125 153.27734375 C-9.89453125 190.89734375 -9.89453125 228.51734375 -9.89453125 267.27734375 C14.79189055 256.69744869 36.36236207 246.21721586 56.10546875 228.27734375 C57.41451172 227.09398437 57.41451172 227.09398437 58.75 225.88671875 C74.13208541 211.2555698 86.08277125 192.43622624 89.10546875 171.27734375 C89.10546875 165.33734375 89.10546875 159.39734375 89.10546875 153.27734375 C56.43546875 153.27734375 23.76546875 153.27734375 -9.89453125 153.27734375 Z " fill="#16a34a" transform="translate(265.89453125,23.72265625)"/>
<path d="M0 0 C5.19626718 2.68850345 9.17554886 6.69070907 11.046875 12.3046875 C11.97648133 26.82901341 10.06703251 41.35493941 8.55352306 55.7755475 C8.26950923 58.49108807 7.99088057 61.20717142 7.71212792 63.92325628 C7.05350021 70.33932728 6.38588686 76.75441806 5.71240234 83.16894531 C5.02270828 89.73936229 4.34828498 96.31122046 3.68133998 102.8839823 C3.10327244 108.57546171 2.51566964 114.26590357 1.9206574 119.95563638 C1.56756619 123.33286032 1.21782885 126.71033565 0.87734222 130.08885574 C-2.32107986 161.60331238 -10.49790178 181.20463378 -31.14453125 205.03125 C-34.16282473 208.52654075 -37.03553685 212.12682697 -39.8984375 215.75 C-42.80447327 219.36320797 -45.81208082 222.88690487 -48.81665039 226.41821289 C-52.48439522 230.73451077 -56.0744606 235.1095681 -59.6484375 239.50390625 C-62.17345575 242.57244537 -64.74797269 245.59508562 -67.328125 248.6171875 C-71.11103664 253.05318795 -74.75878302 257.57044829 -78.328125 262.1796875 C-82.92039418 268.10903123 -87.75570034 273.79373317 -92.71435547 279.41943359 C-93.23787598 280.01449707 -93.76139648 280.60956055 -94.30078125 281.22265625 C-94.76492432 281.74625732 -95.22906738 282.2698584 -95.70727539 282.80932617 C-101.70093013 290.00335621 -100.21016349 300.83809812 -100.453125 309.7421875 C-100.58603346 314.59826883 -100.74164456 319.45135422 -100.953125 324.3046875 C-100.99050781 325.22008301 -101.02789062 326.13547852 -101.06640625 327.07861328 C-101.29697564 330.35417324 -101.58982856 332.77692886 -103.47349548 335.51332092 C-106.97075064 338.039854 -110.19220958 337.85694683 -114.34594727 337.80639648 C-115.61243607 337.81450096 -115.61243607 337.81450096 -116.9045105 337.82276917 C-119.69320815 337.83526879 -122.48087598 337.81875889 -125.26953125 337.80078125 C-127.20718948 337.8009362 -129.14484802 337.80242443 -131.08250427 337.80519104 C-135.14197501 337.80657554 -139.20109265 337.79400731 -143.26049805 337.77124023 C-148.46844794 337.74283657 -153.67581189 337.7455974 -158.88380527 337.75833035 C-162.88405885 337.76527871 -166.88417654 337.7575082 -170.88441277 337.74507332 C-172.80498674 337.74055195 -174.72557527 337.74022798 -176.64615059 337.74413872 C-179.32763813 337.74704317 -182.00831239 337.73058167 -184.68969727 337.70874023 C-185.48614151 337.71324188 -186.28258575 337.71774353 -187.10316467 337.72238159 C-192.44891477 337.64988772 -192.44891477 337.64988772 -194.90708923 335.9669342 C-196.84150233 332.8929745 -197.13186819 330.03238536 -197.34204102 326.49560547 C-197.4320211 325.02533401 -197.4320211 325.02533401 -197.52381897 323.52536011 C-197.58427902 322.45996002 -197.64473907 321.39455994 -197.70703125 320.296875 C-197.77220444 319.1840213 -197.83737762 318.0711676 -197.90452576 316.92459106 C-198.04193637 314.55239009 -198.17712928 312.1800598 -198.31030273 309.80761719 C-198.51053362 306.26964938 -198.72254824 302.73253129 -198.93554688 299.1953125 C-199.60449434 287.71869207 -200.10573353 276.25080394 -200.19921875 264.75390625 C-200.21473282 263.76200287 -200.23024689 262.77009949 -200.24623108 261.74813843 C-200.25922219 237.98904191 -187.62744784 214.01493167 -171.21972656 197.30761719 C-168.82974912 194.93833219 -166.39415932 192.62142588 -163.953125 190.3046875 C-163.12039063 189.45777344 -162.28765625 188.61085938 -161.4296875 187.73828125 C-158.94189399 185.29365135 -156.36103819 183.11074236 -153.640625 180.9296875 C-142.03854006 171.50202276 -132.50398822 161.57758754 -123.61083984 149.54785156 C-120.11343565 144.82198829 -116.52016504 140.19241677 -112.828125 135.6171875 C-109.12916202 131.03109427 -105.47117447 126.42142808 -101.890625 121.7421875 C-101.09011719 120.69933594 -100.28960937 119.65648437 -99.46484375 118.58203125 C-98.15697904 116.87718257 -96.85119656 115.17085103 -95.54931641 113.46142578 C-94.10699408 111.57083375 -92.65579379 109.68733634 -91.203125 107.8046875 C-90.76734131 107.22904053 -90.33155762 106.65339355 -89.88256836 106.06030273 C-85.63566264 100.58413543 -81.00804874 95.6614036 -73.953125 94.3046875 C-67.57376192 94.22129713 -62.91450961 95.03558912 -57.953125 99.3046875 C-53.54680157 103.81115464 -51.05396975 107.83704344 -50.90869141 114.27319336 C-51.37938509 121.11241975 -54.10243873 125.8294465 -57.703125 131.5546875 C-58.28586182 132.50996338 -58.86859863 133.46523926 -59.46899414 134.44946289 C-61.28111655 137.41136589 -63.11527957 140.35869301 -64.953125 143.3046875 C-66.04139757 145.06837343 -67.12867519 146.83267378 -68.21484375 148.59765625 C-70.33903525 152.04319008 -72.47304689 155.48238026 -74.61328125 158.91796875 C-78.80283828 165.65541468 -82.91448102 172.44012716 -87.02124023 179.22827148 C-87.83443726 180.5693396 -87.83443726 180.5693396 -88.6640625 181.9375 C-89.45828613 183.25476074 -89.45828613 183.25476074 -90.26855469 184.59863281 C-91.45791176 186.50918844 -92.69249004 188.39194666 -93.95800781 190.25292969 C-94.60866211 191.21618164 -95.25931641 192.17943359 -95.9296875 193.171875 C-96.53119629 194.0366748 -97.13270508 194.90147461 -97.75244141 195.79248047 C-99.18836365 198.7968806 -98.93978722 200.18387001 -97.953125 203.3046875 C-96.633125 203.6346875 -95.313125 203.9646875 -93.953125 204.3046875 C-87.6130573 196.74324833 -82.11540837 188.7613379 -76.765625 180.4921875 C-75.92577696 179.20038933 -75.08585079 177.90864195 -74.24584961 176.61694336 C-71.80327364 172.85365531 -69.37492514 169.08137233 -66.953125 165.3046875 C-66.31052734 164.30276367 -65.66792969 163.30083984 -65.00585938 162.26855469 C-43.19952118 129.51512593 -43.19952118 129.51512593 -33.27734375 92.22265625 C-33.17386236 90.65173419 -33.06974983 89.08085361 -32.96508789 87.51000977 C-32.9127298 86.69219025 -32.8603717 85.87437073 -32.806427 85.0317688 C-31.8731891 70.73740871 -30.5443839 56.54850428 -28.515625 42.3671875 C-28.41825043 41.66677338 -28.32087585 40.96635925 -28.22055054 40.24472046 C-23.71873356 8.18365789 -23.71873356 8.18365789 -16.34410095 1.94309998 C-11.37969157 -1.44071463 -5.64903795 -2.01105751 0 0 Z " fill="#16a34a" transform="translate(500.953125,152.6953125)"/>
<path d="M0 0 C7.55336318 5.11116723 9.13035352 15.00601781 10.79931641 23.38012695 C13.71009809 39.03848091 15.88962815 54.78327409 17.02734375 70.66796875 C17.08938492 71.52873016 17.15142609 72.38949158 17.21534729 73.27633667 C17.51537981 77.51603333 17.79189939 81.75570958 18.03540039 85.99902344 C18.95492725 100.88132874 22.48904652 113.27902569 29.5625 126.5 C30.17786621 127.66490967 30.79323242 128.82981934 31.42724609 130.0300293 C40.78142515 147.57760746 51.81739384 164.08038425 62.8125 180.625 C63.23992493 181.26829254 63.66734985 181.91158508 64.10772705 182.57437134 C71.03098428 195.14003131 71.03098428 195.14003131 81.25 203.625 C82.24 202.965 83.23 202.305 84.25 201.625 C83.6715282 197.85470039 82.61692666 195.15109561 80.66015625 191.88671875 C80.12865967 190.99307617 79.59716309 190.09943359 79.04956055 189.17871094 C78.47633057 188.23286133 77.90310059 187.28701172 77.3125 186.3125 C76.72057861 185.32411133 76.12865723 184.33572266 75.51879883 183.31738281 C71.439556 176.52837692 67.27809092 169.79372617 63.0546875 163.09375 C59.71044824 157.78098695 56.41462388 152.43830895 53.12173462 147.09362793 C52.09752387 145.43182688 51.07161888 143.7710704 50.0456543 142.11035156 C48.10257765 138.95523768 46.17301509 135.79237674 44.25 132.625 C43.58806641 131.54186523 42.92613281 130.45873047 42.24414062 129.34277344 C41.61314453 128.2912207 40.98214844 127.23966797 40.33203125 126.15625 C39.76589111 125.21845703 39.19975098 124.28066406 38.61645508 123.31445312 C35.76874042 117.70958897 35.46113156 112.26552102 37.375 106.3125 C39.75972905 100.93601997 43.89925272 97.0031099 49.25 94.625 C54.68056704 93.40359219 60.03370811 92.92766865 65.203125 95.25390625 C73.89081103 101.07332953 80.03607067 111.18696164 86.171875 119.50390625 C89.14569557 123.51780829 92.23762986 127.42571144 95.375 131.3125 C99.07402909 135.89853203 102.73208629 140.50816154 106.3125 145.1875 C107.11558594 146.23421875 107.91867188 147.2809375 108.74609375 148.359375 C110.03923331 150.04523063 111.33153363 151.73169905 112.62158203 153.41992188 C119.74046345 162.71504165 126.63200613 170.99891702 136.125 178 C159.58760813 195.49113473 175.31261518 217.53200879 183.25 245.625 C183.59724121 246.63594727 183.94448242 247.64689453 184.30224609 248.68847656 C185.67087221 253.51750482 185.51730825 258.31679511 185.45703125 263.30078125 C185.450168 264.34253006 185.44330475 265.38427887 185.43623352 266.45759583 C185.31186163 278.06207873 184.77667084 289.64632454 184.13305664 301.23217773 C183.93409292 304.874878 183.75692087 308.51827558 183.58007812 312.16210938 C183.45443729 314.4974668 183.32753348 316.83275671 183.19921875 319.16796875 C183.14908127 320.2480571 183.09894379 321.32814545 183.04728699 322.44096375 C182.71177394 328.06658833 182.43470759 332.44029241 178.25 336.625 C175.59342489 336.73077535 172.96271297 336.77177981 170.30541992 336.77026367 C169.472892 336.77362228 168.64036407 336.7769809 167.78260803 336.78044128 C165.01521331 336.78998282 162.24787892 336.79189616 159.48046875 336.79296875 C157.56333897 336.79617971 155.64620945 336.79954366 153.7290802 336.80305481 C149.7030887 336.80905452 145.6771187 336.81089391 141.65112305 336.81030273 C136.4892706 336.8102012 131.32755599 336.82384053 126.1657362 336.84107494 C122.20322536 336.85218938 118.24074787 336.85422209 114.27822304 336.85369301 C112.37521198 336.85487446 110.4722001 336.85930546 108.56920433 336.86702538 C105.90695923 336.87681162 103.24501349 336.87395234 100.58276367 336.86791992 C99.79455231 336.87353943 99.00634094 336.87915894 98.19424438 336.88494873 C91.15838453 336.84439216 91.15838453 336.84439216 88.25 334.625 C85.55685412 327.46348346 85.84540395 319.88033554 85.6875 312.3125 C85.56928473 307.41536946 85.42619964 302.5203905 85.25 297.625 C85.22421875 296.58657959 85.1984375 295.54815918 85.171875 294.47827148 C84.84784928 288.02895555 83.85017439 284.99685393 79.375 280.3125 C78.36193786 279.21206498 77.35160118 278.10911579 76.34375 277.00390625 C75.82683594 276.44848145 75.30992188 275.89305664 74.77734375 275.32080078 C72.31573423 272.58769021 70.10750674 269.6706306 67.875 266.75 C63.42360932 261.00176012 58.73832809 255.4937739 53.95019531 250.02441406 C50.03368043 245.54739615 46.23672933 240.98957063 42.4921875 236.3671875 C39.94746142 233.25499637 37.35374084 230.18780258 34.75 227.125 C29.10125097 220.4748107 23.58176132 213.72378551 18.078125 206.953125 C17.35109375 206.06109375 16.6240625 205.1690625 15.875 204.25 C14.77091797 202.89455078 14.77091797 202.89455078 13.64453125 201.51171875 C11.93378019 199.44932881 10.20856086 197.41438325 8.44921875 195.39453125 C-5.63107921 179.19456732 -11.97802031 162.67223494 -14.17041016 141.3984375 C-14.29749863 140.20523392 -14.4245871 139.01203033 -14.55552673 137.78266907 C-14.90035635 134.53257264 -15.24046969 131.28202987 -15.57786608 128.03115463 C-15.86177277 125.30071826 -16.14874055 122.57060675 -16.43560541 119.84047985 C-17.1136967 113.38553552 -17.78609376 106.93001508 -18.45507812 100.47412109 C-19.1407229 93.85856218 -19.83665112 87.24414219 -20.53762782 80.6301918 C-21.14275515 74.91664952 -21.74095415 69.20240875 -22.33391225 63.48759079 C-22.68650471 60.09023161 -23.04160289 56.69318683 -23.40358353 53.29681396 C-27.59371685 13.79681938 -27.59371685 13.79681938 -22.75 5.625 C-21.03125 3.76171875 -21.03125 3.76171875 -19.25 2.3125 C-18.6621875 1.82136719 -18.074375 1.33023438 -17.46875 0.82421875 C-12.22245856 -2.83626187 -5.68938654 -2.0861084 0 0 Z " fill="#16a34a" transform="translate(25.75,153.375)"/>
<path d="M0 0 C0.91657371 2.97067716 1.01565483 4.97814535 0.36328125 8.0078125 C0.11831909 9.2153418 0.11831909 9.2153418 -0.1315918 10.44726562 C-0.40676636 11.77274414 -0.40676636 11.77274414 -0.6875 13.125 C-2.65236152 23.20476558 -4.00405824 33.30563203 -5.1875 43.5 C-5.27172211 44.2148053 -5.35594421 44.9296106 -5.44271851 45.66607666 C-6.54876074 55.09984687 -7.40785252 64.51818015 -8 74 C-12.66666667 71.66666667 -17.33333333 69.33333333 -22 67 C-20.84454912 56.46553074 -19.20164497 46.13208372 -17.02319336 35.76098633 C-16.55798766 33.54096655 -16.10558861 31.3185886 -15.65429688 29.09570312 C-11.34405277 8.13566177 -11.34405277 8.13566177 -5 3 C-3.36622358 1.94712186 -1.70818403 0.9272999 0 0 Z " fill="#16a34a" transform="translate(463,166)"/>
<path d="M0 0 C4.98118086 2.20098689 9.48455713 4.55368949 11.77661133 9.76611328 C14.05644305 16.6489637 15.55628091 23.6505464 17 30.75 C17.39082764 32.65108521 17.39082764 32.65108521 17.78955078 34.59057617 C19.95639395 45.34280703 21.64424206 56.11825862 23 67 C18.33333333 69.33333333 13.66666667 71.66666667 9 74 C8.93530518 73.16791016 8.87061035 72.33582031 8.80395508 71.47851562 C7.31204042 52.7405798 5.16816229 34.26241102 2.0859375 15.71875 C1.2162798 10.48623668 0.51638385 5.27859044 0 0 Z " fill="#16a34a" transform="translate(48,166)"/>
<path d="M0 0 C5.17565612 0.67433814 7.10903184 2.50643217 10.34521484 6.44140625 C13.44421118 11.23300872 14.80538361 16.54095829 16.3125 22 C16.64572266 23.13695312 16.97894531 24.27390625 17.32226562 25.4453125 C18.24559518 28.62259824 19.13153324 31.80734069 20 35 C20.33330322 36.19689453 20.33330322 36.19689453 20.67333984 37.41796875 C21.67779068 41.1716746 22 44.03954649 22 48 C18.04 47.34 14.08 46.68 10 46 C9.41992188 43.15568359 9.41992188 43.15568359 8.828125 40.25390625 C6.07000315 26.79054684 3.28372314 13.34736875 0 0 Z " fill="#16a34a" transform="translate(73,185)"/>
<path d="M0 0 C0.99 0.33 1.98 0.66 3 1 C2.76812988 1.93682617 2.53625977 2.87365234 2.29736328 3.83886719 C1.42431455 7.37144553 0.55727789 10.90547819 -0.30810547 14.43994141 C-0.68085912 15.95888847 -1.05516359 17.47745596 -1.43115234 18.99560547 C-3.65090568 27.96340894 -5.62092401 36.85454867 -7 46 C-10.96 46.66 -14.92 47.32 -19 48 C-18.41917036 39.97241422 -16.41795984 32.59052896 -14.1875 24.875 C-13.84396484 23.63878906 -13.50042969 22.40257812 -13.14648438 21.12890625 C-8.92736201 6.38968327 -8.92736201 6.38968327 -2.9375 1.5 C-1.968125 1.005 -0.99875 0.51 0 0 Z " fill="#16a34a" transform="translate(436,185)"/>
</svg>
