<svg version="1.1" xmlns="http://www.w3.org/2000/svg" width="792px" height="792px" transform="rotate(0) scale(1, 1)">
<path d="M0 0 C1.95425903 -0.02211548 1.95425903 -0.02211548 3.94799805 -0.04467773 C24.0212793 0.16646026 43.77091947 5.06390568 63.125 10 C64.1521814 10.25949432 65.17936279 10.51898865 66.2376709 10.78634644 C88.1558274 16.33724192 109.75430189 22.76162624 131.3125 29.5625 C132.52004944 29.94287415 133.72759888 30.32324829 134.97174072 30.71514893 C147.08126921 34.52961625 159.18800763 38.35287228 171.28613281 42.20336914 C172.53960007 42.6022081 173.79306732 43.00104706 175.08451843 43.41197205 C177.43309889 44.15973255 179.78143447 44.90826282 182.12947083 45.6577301 C183.19284164 45.99642624 184.25621246 46.33512238 185.35180664 46.68408203 C186.35768829 47.00483704 187.36356995 47.32559204 188.39993286 47.65606689 C191.9778217 48.76955775 195.5775195 49.79819552 199.18919373 50.7963562 C203.97613064 52.5236068 207.12132658 55.48413213 209.62890625 59.859375 C213.03972592 67.51292158 213.50782935 73.87811088 210.625 81.75 C206.03682879 92.02178815 198.12991388 96.83569112 187.9375 100.8125 C176.26053218 104.65326867 164.60315449 104.96888722 152.4375 104.9375 C151.60314423 104.93662384 150.76878845 104.93574768 149.90914917 104.93484497 C133.77718525 104.87943239 118.21952018 103.34333655 102.3125 100.5625 C101.52373474 100.42485229 100.73496948 100.28720459 99.92230225 100.14538574 C92.11888087 98.77839874 84.3186731 97.39417736 76.53149414 95.93725586 C68.79670622 94.49521976 61.16971278 93.15894834 53.3125 92.5625 C55.44696148 99.53507417 59.09144865 102.8741922 65.3125 106.5625 C85.44432483 117.00466004 108.07845949 121.25263167 130.3125 124.5625 C131.42963379 124.74039063 131.42963379 124.74039063 132.56933594 124.921875 C155.23626282 128.44620977 181.27775454 128.84171515 203.75585938 124.1015625 C206.71077293 123.47852496 209.67495341 122.91332771 212.640625 122.34375 C253.11729258 114.33525901 292.94581993 100.9213997 329.8125 82.375 C330.43487549 82.06216064 331.05725098 81.74932129 331.69848633 81.42700195 C334.27892716 80.12201774 336.85209059 78.80818788 339.40332031 77.44677734 C349.98047266 71.8150038 359.01921511 67.88926201 371.19140625 71.390625 C378.41462313 74.44784347 382.09332042 79.44290432 385.15234375 86.5 C387.74653043 94.63862487 386.30569252 103.88861497 382.546875 111.40625 C377.58893025 120.06696361 372.03044291 127.60338847 364.0625 133.6875 C363.45390137 134.15704102 362.84530273 134.62658203 362.21826172 135.11035156 C340.44937565 151.7607119 316.98100044 165.80723298 293.3125 179.5625 C292.47219238 180.05282715 291.63188477 180.5431543 290.76611328 181.04833984 C196.80186692 235.78319822 131.12345481 230.3877169 -7.0625 206.9375 C-7.84885204 206.79926567 -8.63520409 206.66103134 -9.44538498 206.51860809 C-25.16388477 203.75368149 -40.87227873 200.95350732 -56.53515625 197.88671875 C-57.55593262 197.68866638 -58.57670898 197.49061401 -59.62841797 197.28656006 C-64.15777213 196.40706566 -68.68177826 195.51098104 -73.19873047 194.56982422 C-84.70402653 192.24874067 -93.8894229 192.45590735 -104.4375 198 C-105.43777222 198.50865601 -105.43777222 198.50865601 -106.45825195 199.02758789 C-112.29613688 202.11225849 -117.5594217 205.8717444 -122.72753906 209.96850586 C-125.96362501 212.50013465 -128.49141428 214.42189043 -132.6875 214.5625 C-135.51651133 212.36215786 -136.54789845 210.98130464 -137.6875 207.5625 C-137.65476418 204.56789828 -137.55075221 201.61088093 -137.390625 198.62231445 C-137.31911224 197.18504108 -137.31911224 197.18504108 -137.24615479 195.71873188 C-136.49601848 181.18093688 -135.53548117 166.65405355 -134.5997467 152.12727904 C-134.38019184 148.71472456 -134.16197343 145.30208512 -133.94375229 141.88944513 C-133.42914466 133.84178938 -132.91253975 125.79426368 -132.39453125 117.74682617 C-131.86202951 109.47381214 -131.3325517 101.20060854 -130.80459213 92.92730349 C-130.34836315 85.77933247 -129.8904858 78.63146841 -129.43124771 71.48369008 C-129.15816361 67.23324838 -128.88563945 62.98277287 -128.61462402 58.73219872 C-128.36043258 54.74688816 -128.10416372 50.76171638 -127.84632874 46.77663994 C-127.75248796 45.32108428 -127.65935296 43.8654829 -127.56700134 42.409832 C-126.11007189 19.4671636 -126.11007189 19.4671636 -121.6875 15.5625 C-118.97924805 14.53662109 -118.97924805 14.53662109 -115.76171875 13.9609375 C-114.51181152 13.73116211 -113.2619043 13.50138672 -111.97412109 13.26464844 C-110.54560286 13.02843907 -109.11670673 12.79450714 -107.6875 12.5625 C-106.92020569 12.43282837 -106.15291138 12.30315674 -105.36236572 12.16955566 C-99.08466774 11.11018134 -92.79530972 10.13598084 -86.5 9.1875 C-85.50350433 9.03731415 -84.50700867 8.8871283 -83.48031616 8.73239136 C-26.25363471 0.15647641 -26.25363471 0.15647641 0 0 Z " fill="#16a34a" transform="translate(370.6875,453.4375)"/>
<path d="M0 0 C21.05087547 17.80965478 34.62476388 39.51432302 37.9375 67.3125 C39.81580744 96.33620952 32.15101149 122.19214729 12.9375 144.3125 C-2.21633616 161.36776808 -25.35624985 173.959936 -48.31005859 175.53540039 C-77.44791605 176.48318935 -101.69123464 171.59690197 -124.1875 152 C-143.51711596 133.84562469 -156.28835531 111.54542437 -157.34375 84.5625 C-157.95058033 57.86196563 -151.17359908 35.09622522 -134.0625 14.3125 C-133.32 13.3225 -132.5775 12.3325 -131.8125 11.3125 C-99.81097525 -26.44093279 -38.06801062 -29.23187461 0 0 Z " fill="#16a34a" transform="translate(646.0625,260.6875)"/>
<path d="M0 0 C0.99465775 0.04686951 1.98931549 0.09373901 3.01411438 0.14202881 C6.28522761 0.29904439 9.55520324 0.47295808 12.82543945 0.6472168 C15.11451924 0.76076969 17.40364907 0.87331775 19.69282532 0.98490906 C25.71353522 1.28133029 31.7334087 1.59233836 37.75323486 1.90612793 C42.64123732 2.15852996 47.52971709 2.40077992 52.41826153 2.64242268 C80.66056859 4.03897493 80.66056859 4.03897493 93.7512207 4.78393555 C94.84874853 4.84503824 94.84874853 4.84503824 95.96844864 4.90737534 C97.81691439 5.0136098 99.66461998 5.13286304 101.51220703 5.25341797 C102.93875359 5.34510506 102.93875359 5.34510506 104.39411926 5.43864441 C109.29609116 6.15673292 111.87413435 8.81202905 115.0637207 12.34643555 C118.21990571 16.90536945 117.7701275 20.91881361 117.47949219 26.21875 C117.43246627 27.12995008 117.38544035 28.04115015 117.3369894 28.97996235 C116.54621968 43.42943278 115.39362525 57.85834897 114.29254079 72.28676009 C114.09704196 74.85097258 113.90239648 77.41524846 113.70803642 79.9795475 C113.02794894 88.95209239 112.34480453 97.92439829 111.65869141 106.89648438 C111.02201603 115.2231631 110.39219435 123.55034153 109.7654801 131.87777537 C109.22375816 139.07183868 108.67727474 146.26553015 108.12712282 153.45895368 C107.80004276 157.73667449 107.4748365 162.01451654 107.15446663 166.29274559 C106.85375712 170.306259 106.5470894 174.31927442 106.23596001 178.3319931 C106.12338662 179.79668684 106.01287795 181.26154108 105.90467834 182.72656441 C104.25844705 204.96622466 104.25844705 204.96622466 98.48168945 211.40893555 C94.69594714 214.41701973 90.90654388 215.03453266 86.17236328 215.04463196 C85.06204742 215.05171677 83.95173157 215.05880157 82.80776978 215.06610107 C80.99507095 215.06238495 80.99507095 215.06238495 79.14575195 215.05859375 C77.86558197 215.06370468 76.58541199 215.06881561 75.26644897 215.07408142 C71.76235971 215.08745035 68.25837844 215.08805257 64.75426865 215.08551812 C61.82676357 215.08444721 58.89928024 215.08933473 55.97177982 215.09412354 C49.0652357 215.10521094 42.15874598 215.10566013 35.25219727 215.09960938 C28.13063262 215.09356617 21.00926538 215.10589103 13.88773441 215.12717944 C7.76869734 215.14479751 1.64972309 215.15079658 -4.46933842 215.1475417 C-8.12197808 215.14572939 -11.77447684 215.14835995 -15.42709351 215.16225624 C-19.49929625 215.17716997 -23.57109709 215.16786275 -27.64331055 215.15625 C-28.85177643 215.16389374 -30.06024231 215.17153748 -31.30532837 215.17941284 C-32.41564423 215.17239853 -33.52596008 215.16538422 -34.66992188 215.15815735 C-35.63223221 215.15832509 -36.59454254 215.15849283 -37.58601379 215.15866566 C-41.98832497 214.53912986 -45.42386783 212.17382931 -48.2487793 208.78393555 C-49.46772451 205.12709989 -49.18321647 201.97426367 -48.92440796 198.19593811 C-48.87589703 197.4408084 -48.8273861 196.68567869 -48.77740514 195.90766627 C-48.21800694 187.64543369 -47.34742387 179.42168933 -46.4387207 171.19189453 C-46.25591943 169.50784337 -46.07346022 167.82375506 -45.89131165 166.13963318 C-45.40159305 161.62325122 -44.90639655 157.10748753 -44.4095273 152.59188724 C-44.09855318 149.76376287 -43.78872083 146.93551569 -43.47925949 144.10722542 C-42.39757676 134.22250553 -41.31110638 124.33832446 -40.22045898 114.45458984 C-39.20656107 105.26509708 -38.20379809 96.07443378 -37.20600188 86.88318008 C-36.34543439 78.96093548 -35.47680878 71.03960074 -34.60200059 63.11891609 C-34.0810905 58.40108833 -33.56347071 53.68295698 -33.05412674 48.96386528 C-32.5757974 44.53447484 -32.08743488 40.10630338 -31.59143639 35.6788578 C-31.41165516 34.05876039 -31.23541817 32.43826496 -31.0630703 30.81735992 C-28.87195032 10.25956534 -28.87195032 10.25956534 -22.5612793 4.90893555 C-21.93866211 4.35463867 -21.31604492 3.8003418 -20.67456055 3.22924805 C-14.15148988 -0.65728359 -7.31898614 -0.41516566 0 0 Z M14.02856445 139.6003418 C9.19607655 145.47769195 7.18017589 151.78035383 6.3762207 159.28393555 C7.49302526 169.70744471 11.37744948 177.41689032 19.5012207 184.09643555 C25.75248503 188.48307801 33.13708076 190.59973626 40.7512207 189.78393555 C49.81394096 188.10172493 56.83361626 183.72713987 62.6262207 176.53393555 C66.94309917 169.83378043 68.48884172 162.0299607 67.3215332 154.1940918 C65.41840493 146.15141957 61.50562037 139.0547543 54.6105957 134.3112793 C40.21873748 125.91602867 25.54995112 127.45194089 14.02856445 139.6003418 Z " fill="#16a34a" transform="translate(84.248779296875,459.216064453125)"/>
<path d="M0 0 C2.44657109 2.16897225 4.77063387 4.41516512 7.08203125 6.7265625 C7.70335937 7.26539063 8.3246875 7.80421875 8.96484375 8.359375 C20.12027637 18.31422294 26.95803224 35.46956236 28.30517578 50.15991211 C29.32486967 72.55124229 24.35582375 91.73523509 9.08203125 108.7265625 C8.56382812 109.33757812 8.045625 109.94859375 7.51171875 110.578125 C-1.35308161 120.33386007 -13.46096051 126.12854313 -25.91796875 129.7265625 C-26.73265625 129.97148437 -27.54734375 130.21640625 -28.38671875 130.46875 C-46.29670472 134.94624649 -65.74368245 131.24527349 -81.76171875 122.6484375 C-86.53570491 119.74150533 -90.7662036 116.45865464 -94.91796875 112.7265625 C-95.52898437 112.20835937 -96.14 111.69015625 -96.76953125 111.15625 C-106.11802054 102.66150402 -112.21788783 90.61967975 -115.91796875 78.7265625 C-116.16289062 77.95699219 -116.4078125 77.18742187 -116.66015625 76.39453125 C-121.64964973 56.8808273 -117.20069413 35.64235299 -107.12451172 18.57666016 C-103.71934423 13.3552196 -99.38865691 9.03191456 -94.91796875 4.7265625 C-93.95117188 3.73076172 -93.95117188 3.73076172 -92.96484375 2.71484375 C-68.48160531 -20.97002822 -26.08363 -20.32218563 0 0 Z " fill="#16a34a" transform="translate(423.91796875,238.2734375)"/>
<path d="M0 0 C10.59992313 8.77049477 16.68044487 20.5392581 18 34.2109375 C18.61178588 47.72554794 15.04456699 59.61431366 6.62109375 70.28515625 C-2.42064959 80.11679167 -13.9363824 85.21600584 -27.1640625 86.5703125 C-40.37669133 87.00756496 -52.63977024 82.59301307 -62.62890625 74.03515625 C-72.37396061 64.76360767 -77.37966433 54.42267116 -77.85180664 40.91479492 C-78.005532 25.99789498 -74.41927746 14.87435826 -64.08984375 3.83984375 C-46.38048779 -13.19487007 -19.84484527 -14.30523329 0 0 Z " fill="#16a34a" transform="translate(519.37890625,116.71484375)"/>
<path d="M0 0 C2.49609375 -0.3984375 2.49609375 -0.3984375 5.4375 -0.375 C6.40558594 -0.38273437 7.37367188 -0.39046875 8.37109375 -0.3984375 C11 0 11 0 12.8046875 1.13671875 C14.50917269 3.79371037 14.51923199 6.05771501 14.6875 9.1875 C14.75324219 10.27417969 14.81898438 11.36085938 14.88671875 12.48046875 C14.94279297 13.72763672 14.94279297 13.72763672 15 15 C15.78503906 15.18175781 16.57007813 15.36351562 17.37890625 15.55078125 C23.19425571 16.94218388 28.60004859 18.42275046 34 21 C33.66009167 26.37992836 33.31442207 30.53273547 30 35 C25.6051297 34.61341419 21.36912932 34.17903991 17.125 32.9375 C10.87315849 31.28701384 4.52378677 31.07018382 -1.5625 33.3125 C-4.21999539 34.93093168 -4.21999539 34.93093168 -6 38 C-6.44215485 41.97939362 -6.54991486 44.17259354 -4.3046875 47.55078125 C-1.87195245 50.13607766 0.04548031 51.33108098 3.25 52.8125 C4.29929687 53.31265625 5.34859375 53.8128125 6.4296875 54.328125 C7.60789062 54.87984375 8.78609375 55.4315625 10 56 C12.8001138 57.33724682 15.58870099 58.69674932 18.375 60.0625 C19.04047852 60.37872314 19.70595703 60.69494629 20.39160156 61.02075195 C26.31121868 63.91886686 31.39898461 67.3026159 34.8125 73.125 C35.21082031 73.78757812 35.60914063 74.45015625 36.01953125 75.1328125 C39.40032435 81.57113561 38.73417026 90.39675248 37.609375 97.44921875 C35.34040091 104.61975867 29.45143424 111.01613081 22.875 114.5 C19.67375377 115.98383945 16.47965806 116.48741581 13 117 C13.03480469 117.97582031 13.06960938 118.95164062 13.10546875 119.95703125 C13.13253906 121.22933594 13.15960937 122.50164062 13.1875 123.8125 C13.23970703 125.70935547 13.23970703 125.70935547 13.29296875 127.64453125 C13 131 13 131 11.80078125 132.92578125 C9.42455578 134.34326933 7.75687793 134.39961498 5 134.375 C4.13375 134.38273438 3.2675 134.39046875 2.375 134.3984375 C0 134 0 134 -1.76953125 132.89453125 C-3.58618613 130.09745945 -3.52407195 127.61374665 -3.6875 124.3125 C-3.78611328 122.54326172 -3.78611328 122.54326172 -3.88671875 120.73828125 C-3.92410156 119.83464844 -3.96148438 118.93101562 -4 118 C-5.24136719 117.74605469 -6.48273437 117.49210937 -7.76171875 117.23046875 C-9.4037483 116.88329679 -11.04566981 116.53561357 -12.6875 116.1875 C-13.50412109 116.02185547 -14.32074219 115.85621094 -15.16210938 115.68554688 C-19.55991868 114.74188739 -23.41789671 113.88578261 -27 111 C-27.78445093 105.80301258 -26.68678605 102.44353077 -24 98 C-22 96 -22 96 -19.6953125 95.75390625 C-16.74521991 96.02326253 -14.59093045 96.77056352 -11.875 97.9375 C-4.86159559 100.91126874 1.90249337 102.65546035 9.4296875 100.2109375 C13.04918606 98.47410852 14.71939701 97.42090449 17 94 C17.75645293 89.30202917 17.83674987 85.31489265 15.25 81.25 C9.36064803 77.17275633 2.85878362 74.33821979 -3.61328125 71.30859375 C-12.84887966 66.91528378 -21.5229372 62.61536328 -25.37890625 52.58984375 C-27.32631042 44.4695358 -26.77667137 36.42311269 -23 29 C-19.24152491 23.30534078 -14.18140977 19.85367338 -8 17 C-4.68359375 16.33203125 -4.68359375 16.33203125 -2 16 C-2.02320313 15.09636719 -2.04640625 14.19273437 -2.0703125 13.26171875 C-2.09738281 11.49248047 -2.09738281 11.49248047 -2.125 9.6875 C-2.14820313 8.51574219 -2.17140625 7.34398437 -2.1953125 6.13671875 C-2 3 -2 3 0 0 Z " fill="#fbfbfb" transform="translate(581,272)"/>
<path d="M0 0 C0.80308594 0.01417969 1.60617187 0.02835938 2.43359375 0.04296875 C3.64208984 0.05263672 3.64208984 0.05263672 4.875 0.0625 C6.87109375 0.23046875 6.87109375 0.23046875 7.87109375 1.23046875 C8.10396383 2.91230823 8.28373541 4.60171035 8.43359375 6.29296875 C8.55927734 7.67162109 8.55927734 7.67162109 8.6875 9.078125 C8.74808594 9.78839844 8.80867188 10.49867188 8.87109375 11.23046875 C9.70253906 11.42382812 10.53398437 11.6171875 11.390625 11.81640625 C12.47730469 12.07679688 13.56398438 12.3371875 14.68359375 12.60546875 C15.76253906 12.86070312 16.84148437 13.1159375 17.953125 13.37890625 C20.87109375 14.23046875 20.87109375 14.23046875 23.87109375 16.23046875 C23.30563538 20.18867734 22.06207027 22.89637405 19.87109375 26.23046875 C13.26487613 25.323733 13.26487613 25.323733 10.49609375 24.66796875 C5.07209102 23.76396829 -0.31736223 23.22983407 -5.12890625 26.23046875 C-6.94787598 29.86840821 -6.38144827 33.47284268 -5.12890625 37.23046875 C-2.97029739 38.28507488 -2.97029739 38.28507488 -0.12890625 39.23046875 C20.0303362 47.6640123 20.0303362 47.6640123 25.80859375 57.54296875 C27.72625851 64.19839352 27.97711249 69.77896146 24.74609375 76.04296875 C20.46693714 82.83927631 15.41375368 85.75959739 7.87109375 88.23046875 C7.78021484 89.40416016 7.78021484 89.40416016 7.6875 90.6015625 C7.60371094 91.61347656 7.51992188 92.62539063 7.43359375 93.66796875 C7.35238281 94.67730469 7.27117187 95.68664062 7.1875 96.7265625 C6.87109375 99.23046875 6.87109375 99.23046875 5.87109375 100.23046875 C3.875 100.43359375 3.875 100.43359375 1.43359375 100.48046875 C0.63050781 100.50625 -0.17257812 100.53203125 -1 100.55859375 C-1.70253906 100.4503125 -2.40507812 100.34203125 -3.12890625 100.23046875 C-5.26477303 97.02666858 -5.360228 96.21106908 -5.25390625 92.54296875 C-5.23585938 91.73472656 -5.2178125 90.92648437 -5.19921875 90.09375 C-5.17601562 89.47886719 -5.1528125 88.86398437 -5.12890625 88.23046875 C-5.85335938 88.12089844 -6.5778125 88.01132812 -7.32421875 87.8984375 C-17.82295724 86.17664439 -17.82295724 86.17664439 -22.12890625 83.23046875 C-23.19140625 81.41796875 -23.19140625 81.41796875 -23.12890625 79.23046875 C-20.85304418 73.95460668 -20.85304418 73.95460668 -19.12890625 72.23046875 C-15.36028465 72.61502197 -11.7749007 73.29796052 -8.12890625 74.29296875 C-2.48797358 75.74411777 2.6074498 76.00850305 7.87109375 73.23046875 C9.76771118 72.08400327 9.76771118 72.08400327 10.87109375 70.23046875 C11.40545149 66.71897502 11.26226848 64.88632422 9.43359375 61.8203125 C5.906717 58.25580139 1.99084873 56.64773153 -2.56640625 54.66796875 C-10.63457257 51.11011018 -16.52608753 48.12101513 -21.12890625 40.23046875 C-22.81341746 34.75301839 -23.26649231 28.73544195 -20.56640625 23.54296875 C-17.31842295 18.5727452 -12.60055458 14.54289156 -7.12890625 12.23046875 C-6.13890625 12.23046875 -5.14890625 12.23046875 -4.12890625 12.23046875 C-4.15210938 11.53179687 -4.1753125 10.833125 -4.19921875 10.11328125 C-4.21726562 9.20320312 -4.2353125 8.293125 -4.25390625 7.35546875 C-4.27710938 6.45054687 -4.3003125 5.545625 -4.32421875 4.61328125 C-4.06373157 1.43533766 -3.21896897 0.34847554 0 0 Z " fill="#f9f9f9" transform="translate(377.12890625,246.76953125)"/>
<path d="M0 0 C2.5625 0.1875 2.5625 0.1875 4.5625 2.1875 C4.6875 5.3125 4.6875 5.3125 4.5625 8.1875 C5.490625 8.331875 6.41875 8.47625 7.375 8.625 C10.5625 9.1875 10.5625 9.1875 13.5625 10.1875 C13.2325 12.4975 12.9025 14.8075 12.5625 17.1875 C8.8125 18.3125 8.8125 18.3125 6.5625 17.1875 C4.8771804 17.09215746 3.18800734 17.05764242 1.5 17.0625 C0.60152344 17.05992187 -0.29695313 17.05734375 -1.22265625 17.0546875 C-3.41128893 16.94011777 -3.41128893 16.94011777 -4.4375 18.1875 C-4.47830783 20.18708364 -4.48004356 22.18795254 -4.4375 24.1875 C-3.00857422 24.85845703 -3.00857422 24.85845703 -1.55078125 25.54296875 C-0.28359015 26.1530978 0.98332228 26.76380585 2.25 27.375 C2.87583984 27.66697266 3.50167969 27.95894531 4.14648438 28.25976562 C8.38580116 30.32393558 11.35481634 32.6465505 14.5625 36.1875 C15.0575 36.6825 15.0575 36.6825 15.5625 37.1875 C16.16820292 42.04845761 16.62208422 47.01333584 14.43359375 51.50390625 C11.87062457 54.70929069 10.1956915 56.01161347 6.1875 57.125 C5.32125 57.145625 4.455 57.16625 3.5625 57.1875 C3.583125 58.486875 3.60375 59.78625 3.625 61.125 C3.64649454 62.47915633 3.63398199 63.83506083 3.5625 65.1875 C3.2325 65.5175 2.9025 65.8475 2.5625 66.1875 C0.22305264 65.90019945 -2.1114143 65.56813221 -4.4375 65.1875 C-4.7675 62.8775 -5.0975 60.5675 -5.4375 58.1875 C-7.3246875 57.754375 -7.3246875 57.754375 -9.25 57.3125 C-12.2914399 56.61446461 -13.74419878 55.98303415 -16.4375 54.1875 C-15.6875 49.4375 -15.6875 49.4375 -13.4375 47.1875 C-10.82169521 47.5144756 -8.79671863 48.00789068 -6.4375 49.1875 C-1.41131517 49.5668347 1.46138036 49.17013247 5.5625 46.1875 C5.63500608 43.31297616 5.63500608 43.31297616 4.5625 40.1875 C2.10059402 38.55423555 -0.02451409 37.37104929 -2.6875 36.1875 C-8.31183882 33.62999718 -11.92414837 31.38056831 -15.4375 26.1875 C-16.65277304 21.65853216 -15.8174897 17.97670939 -13.8125 13.8125 C-11.20828728 10.93415962 -9.03531736 9.59534158 -5.4375 8.1875 C-4.7775 8.1875 -4.1175 8.1875 -3.4375 8.1875 C-3.458125 7.053125 -3.47875 5.91875 -3.5 4.75 C-3.42128378 0.26317568 -3.42128378 0.26317568 0 0 Z " fill="#f6f6f6" transform="translate(489.4375,121.8125)"/>
</svg>