<?xml version="1.0" encoding="UTF-8"?>
<svg version="1.1" xmlns="http://www.w3.org/2000/svg" width="3000" height="3000">
<path d="M0 0 C1.65 0 3.3 0 5 0 C5.36351562 0.70125 5.72703125 1.4025 6.1015625 2.125 C8.89712122 7.40072108 11.78454937 12.29917678 15.453125 17.0078125 C21.08839868 24.26536193 25.98983309 32.04026423 30.95410156 39.76171875 C33.89036396 44.31805739 36.90879555 48.79214424 40.0546875 53.20703125 C43.3104681 57.88149537 46.43276036 62.64629946 49.56225586 67.40600586 C52.45958331 71.78633467 55.48564485 76.0189938 58.6628418 80.20019531 C60.36709743 82.49411033 61.88235231 84.87652928 63.375 87.3125 C66.43887756 92.21062798 69.77564868 96.84209281 73.2109375 101.484375 C74.72411227 103.61207053 76.05547105 105.71623749 77.3125 108 C78.75624236 110.89585602 78.75624236 110.89585602 80.4609375 112.42578125 C82.21102527 114.21584565 83.1678595 115.96508802 84.3125 118.1875 C86.37285225 122.00160446 88.68165269 125.35315463 91.33203125 128.7734375 C94.77046642 133.36338608 97.84769995 138.2112947 101 143 C104.06936048 147.64531574 107.16884771 152.26019798 110.375 156.8125 C113.09404335 160.68728885 115.78262915 164.58090494 118.4375 168.5 C119.45650391 170.00046875 119.45650391 170.00046875 120.49609375 171.53125 C122 174 122 174 122 176 C122.66 176 123.32 176 124 176 C125.15625 177.6953125 125.15625 177.6953125 126.5 180.125 C129.10691195 184.6295905 131.95100245 188.85322421 135 193.0625 C138.78802408 198.30164376 142.45421523 203.59291089 146 209 C150.37174109 215.60718808 154.79351443 222.16717399 159.35546875 228.64453125 C161.96832717 232.38693892 164.48258106 236.19302086 167 240 C171.37656152 246.6096841 175.79935367 253.17444723 180.36328125 259.65625 C183.35706849 263.94329617 186.22765815 268.31214381 189.10595703 272.67724609 C194.01667098 280.11958265 198.97424212 287.48322222 204.30859375 294.6328125 C206.01536931 297.02150993 207.50905017 299.47221713 209 302 C212.55739574 307.50987444 216.30073477 312.89070618 220.07421875 318.25390625 C222.66600463 321.94969829 225.22953507 325.6648926 227.79296875 329.38037109 C229.76699821 332.23675769 231.7647142 335.07110867 233.8125 337.875 C235.38279495 340.1182785 236.74170756 342.24757362 238.0625 344.625 C239.84808185 347.93622944 239.84808185 347.93622944 241.9140625 350.38671875 C243.9224476 352.90284166 245.61950978 355.45204803 247.3125 358.1875 C250.22528315 362.82545086 253.28248149 367.32674051 256.4453125 371.796875 C258.35064049 374.49688753 260.18055263 377.24148302 262 380 C267.0939089 387.71577377 272.33605341 395.31751688 277.75 402.8125 C279.04330742 404.64468551 280.30201471 406.50498158 281.453125 408.4296875 C282.88258437 410.8049003 284.3950175 413.05348714 286 415.3125 C303.78492852 440.53613535 303.78492852 440.53613535 308.4296875 448.4296875 C310.03290107 451.05385299 311.78210496 453.47651465 313.625 455.9375 C316.77048301 460.21997412 319.71624151 464.57964287 322.5625 469.0625 C326.22144534 474.82440391 330.04264596 480.43955115 334 486 C335.20955698 487.72831094 336.41788844 489.4574802 337.625 491.1875 C339.64580372 494.07824613 341.68361507 496.95420707 343.75 499.8125 C345.64309193 502.49438023 347.3133733 505.18895551 349 508 C352.74806584 513.76061424 356.59253788 519.4525761 360.5625 525.0625 C362.97667128 528.48394456 365.26862402 531.95663458 367.5 535.5 C371.54015789 541.90446553 375.6149607 548.3635803 380.625 554.0625 C382.55674834 556.45176768 383.84106241 558.44610166 385.25 561.125 C387.96052661 566.21906906 391.41597442 570.63109994 394.921875 575.19921875 C396.56117432 577.40857516 397.99281712 579.5337919 399.3125 581.9375 C400.86890075 584.97316673 400.86890075 584.97316673 402.8359375 587.2734375 C405.22318918 590.28120225 407.27384753 593.44088915 409.3125 596.6875 C412.46902885 601.65698303 415.72291568 606.52364973 419.1328125 611.32421875 C421.41608719 614.59627557 423.61287763 617.92139037 425.8125 621.25 C429.61523444 626.99855677 433.56005734 632.62497371 437.59423828 638.21289062 C440.14926502 641.76611777 442.54454954 645.36492546 444.8125 649.10546875 C446.74500442 652.18857614 448.87991255 655.12758876 450.98046875 658.09765625 C453.37063246 661.53264974 455.68766973 665.01235126 458 668.5 C462.4198826 675.15968797 466.94838777 681.73221958 471.59765625 688.234375 C475.38082732 693.56480044 478.96534836 699.00324627 482.5 704.5 C485.94398281 709.85473319 489.43247868 715.15302422 493.12109375 720.34375 C499.56601307 729.45507046 505.85154839 738.68636916 512 748 C515.08560059 752.67009819 518.20373385 757.30586166 521.4375 761.875 C524.56207702 766.30609264 527.47115565 770.84718944 530.32421875 775.45703125 C532.07268939 778.11030487 534.00183953 780.5312149 536 783 C536.89502707 784.27787101 537.77050988 785.5696746 538.625 786.875 C539.13289063 787.64457031 539.64078125 788.41414063 540.1640625 789.20703125 C540.76992187 790.12871094 541.37578125 791.05039063 542 792 C543.66261254 794.52353278 545.32943157 797.04422678 547 799.5625 C547.43344727 800.21589355 547.86689453 800.86928711 548.31347656 801.54248047 C551.00165707 805.57067515 553.80515679 809.46714124 556.765625 813.30078125 C558.02844034 815.03915046 559.08371398 816.80918022 560.125 818.6875 C561.85081922 821.9417178 561.85081922 821.9417178 563.8828125 824.3515625 C566.0302423 827.03783077 567.89987355 829.78975921 569.75 832.6875 C570.36359375 833.64011719 570.9771875 834.59273437 571.609375 835.57421875 C573 838 573 838 573 840 C573.66 840 574.32 840 575 840 C576.30250493 841.91034056 577.5159105 843.88168663 578.6875 845.875 C582.21291955 851.77532073 585.99337997 857.41278675 590 863 C594.54652035 869.40842868 598.95394851 875.89778219 603.2902832 882.44946289 C606.30281463 886.99051727 609.41202509 891.44916899 612.625 895.8515625 C614.09795466 898.15305415 615.06507441 900.4379443 616 903 C616.66 903 617.32 903 618 903 C619.3671875 904.72265625 619.3671875 904.72265625 620.875 907.0625 C621.40996094 907.89007812 621.94492188 908.71765625 622.49609375 909.5703125 C624.03227521 912.05214333 625.46148903 914.58382744 626.8828125 917.1328125 C629.34425638 921.24669424 632.21803972 925.09939885 635 929 C639.26216369 934.9916004 643.33012444 941.05629124 647.25 947.27734375 C650.03567533 951.61130738 653.01857303 955.79950066 656 960 C657.20938356 961.7284323 658.41772459 963.45759454 659.625 965.1875 C661.61866762 968.04196818 663.63483785 970.87529009 665.6875 973.6875 C667.33295758 975.96956084 668.7631443 978.28838158 670.125 980.75 C671.73449137 983.86405566 671.73449137 983.86405566 673.5 985.5 C675.39808091 987.39808091 676.49199171 989.59534862 677.78125 991.9296875 C679.6907426 995.17337685 681.89992334 998.19455018 684.078125 1001.26171875 C686.10102612 1004.14394169 688.0554848 1007.064385 690 1010 C692.454661 1013.7008735 694.94083498 1017.3706387 697.5 1021 C701.44229071 1026.59464034 705.21989138 1032.29505079 709 1038 C710.52720227 1040.29263459 712.05600255 1042.58418831 713.5859375 1044.875 C714.5126489 1046.26762708 715.43470543 1047.66336551 716.3515625 1049.0625 C719.46135919 1053.78800112 722.70051331 1058.40611808 726 1063 C729.77925462 1068.26425975 733.4447515 1073.58125168 737 1079 C742.27128806 1087.00585707 747.57411564 1094.94693579 753.30859375 1102.6328125 C755.01661478 1105.02325301 756.49751504 1107.4759744 758 1110 C759.55822344 1112.4126403 761.15323695 1114.80024217 762.75 1117.1875 C763.40935547 1118.1772583 763.40935547 1118.1772583 764.08203125 1119.18701172 C767.17173348 1123.80917924 770.34710521 1128.36021627 773.625 1132.8515625 C775 1135 775 1135 776.0625 1137.7109375 C776.7725026 1140.1605032 776.7725026 1140.1605032 779 1141 C782.09522777 1144.62583824 784.81604636 1148.51855593 787.125 1152.6875 C788.85393114 1155.94797041 788.85393114 1155.94797041 790.91015625 1158.3828125 C792.92035431 1160.90025679 794.61839049 1163.45023953 796.3125 1166.1875 C799.22528315 1170.82545086 802.28248149 1175.32674051 805.4453125 1179.796875 C807.35064049 1182.49688753 809.18055263 1185.24148302 811 1188 C814.02607234 1192.58360958 817.08217679 1197.13787159 820.25 1201.625 C823.23896783 1205.87039236 826.1302189 1210.17376726 829 1214.5 C831.78689778 1218.70115995 834.59020863 1222.8823707 837.5 1227 C840.40979486 1231.11763424 843.21297877 1235.29891797 846 1239.5 C850.42008896 1246.15955649 854.94838192 1252.73221139 859.59765625 1259.234375 C863.89611092 1265.2908265 867.92750275 1271.49940127 871.94335938 1277.74462891 C875.49858757 1283.26013637 879.18752424 1288.65885039 883 1294 C884.20973194 1295.72818849 885.41805086 1297.45736689 886.625 1299.1875 C888.61866762 1302.04196818 890.63483785 1304.87529009 892.6875 1307.6875 C894.33295758 1309.96956084 895.7631443 1312.28838158 897.125 1314.75 C898.73449137 1317.86405566 898.73449137 1317.86405566 900.5 1319.5 C902.396986 1321.396986 903.49050459 1323.59185624 904.77734375 1325.92578125 C906.70113878 1329.18947187 908.93785727 1332.22340989 911.1328125 1335.30859375 C913.65700182 1338.94701727 915.99413825 1342.69219952 918.32421875 1346.45703125 C920.07268939 1349.11030487 922.00183953 1351.5312149 924 1354 C924.89502707 1355.27787101 925.77050988 1356.5696746 926.625 1357.875 C927.13289063 1358.64457031 927.64078125 1359.41414063 928.1640625 1360.20703125 C929.07285156 1361.58955078 929.07285156 1361.58955078 930 1363 C937.16289786 1373.88853983 937.16289786 1373.88853983 944.81640625 1384.43359375 C947.81392206 1388.40060312 949.4336283 1390.94100317 949 1396 C948.34 1396 947.68 1396 947 1396 C945.83348603 1394.59332138 944.67095015 1393.183177 943.52734375 1391.7578125 C941.35670341 1389.25963308 938.89241645 1387.1993513 936.375 1385.05859375 C934.03926462 1383.03403364 931.77177693 1380.94590605 929.51025391 1378.83911133 C924.0207989 1373.70037651 924.0207989 1373.70037651 918.0625 1369.125 C914.96911144 1366.97856712 912.64243483 1364.67675216 910 1362 C907.8961947 1359.97699228 905.76301856 1357.98674366 903.625 1356 C903.08617188 1355.49210937 902.54734375 1354.98421875 901.9921875 1354.4609375 C898.20173492 1350.94123154 894.23186107 1347.9725 890 1345 C888.31237149 1343.3545622 886.6459651 1341.68711423 885 1340 C883.84227051 1338.98966662 882.67502705 1337.99016288 881.5 1337 C878.50865087 1334.46984389 875.77158906 1331.77158906 873 1329 C867.57809252 1323.94146551 862.05949254 1319.12675243 856.10546875 1314.703125 C853.54779531 1312.63420919 851.31071985 1310.34152945 849 1308 C846.89607796 1305.9771164 844.76301726 1303.98674245 842.625 1302 C842.08617188 1301.49210937 841.54734375 1300.98421875 840.9921875 1300.4609375 C838.24339137 1297.90848395 835.48349054 1295.5754902 832.3984375 1293.4375 C829.24495185 1291.24667111 826.66568033 1288.77551819 824 1286 C821.87790917 1283.95352627 819.72145939 1281.94495346 817.5625 1279.9375 C817.01529297 1279.42123047 816.46808594 1278.90496094 815.90429688 1278.37304688 C812.46880368 1275.18149403 808.93029599 1272.58049737 805 1270 C804.071875 1268.824375 804.071875 1268.824375 803.125 1267.625 C800.74197799 1264.68126692 798.18283381 1262.78401094 795.09765625 1260.625 C792.5032277 1258.61516336 790.30135544 1256.33919536 788 1254 C780.37925791 1246.64455409 780.37925791 1246.64455409 772.0625 1240.125 C768.96911144 1237.97856712 766.64243483 1235.67675216 764 1233 C761.8961947 1230.97699228 759.76301856 1228.98674366 757.625 1227 C757.08617188 1226.49210937 756.54734375 1225.98421875 755.9921875 1225.4609375 C753.24339137 1222.90848395 750.48349054 1220.5754902 747.3984375 1218.4375 C744.24495185 1216.24667111 741.66568033 1213.77551819 739 1211 C736.87790917 1208.95352627 734.72145939 1206.94495346 732.5625 1204.9375 C732.01529297 1204.42123047 731.46808594 1203.90496094 730.90429688 1203.37304688 C727.46764234 1200.18041515 723.92270347 1197.59278406 720 1195 C719.195625 1194.030625 718.39125 1193.06125 717.5625 1192.0625 C715.13210917 1189.15788656 712.97960422 1187.3901697 709.84375 1185.37109375 C707.30784001 1183.48527933 705.21564394 1181.25164406 703 1179 C701.0729679 1177.17397096 699.14085724 1175.35972744 697.1875 1173.5625 C696.66341553 1173.08022949 696.13933105 1172.59795898 695.59936523 1172.10107422 C692.15912262 1168.96955103 688.64393965 1166.06850401 684.81640625 1163.4140625 C682.32976111 1161.47822263 680.21287028 1159.24233157 678 1157 C676.0729679 1155.17397096 674.14085724 1153.35972744 672.1875 1151.5625 C671.66341553 1151.08022949 671.13933105 1150.59795898 670.59936523 1150.10107422 C667.15912262 1146.96955103 663.64393965 1144.06850401 659.81640625 1141.4140625 C657.32918561 1139.4777746 655.21391224 1137.24295774 653 1135 C650.87534473 1132.95618327 648.72146996 1130.9449633 646.5625 1128.9375 C646.01529297 1128.42123047 645.46808594 1127.90496094 644.90429688 1127.37304688 C641.46880368 1124.18149403 637.93029599 1121.58049737 634 1119 C633.071875 1117.824375 633.071875 1117.824375 632.125 1116.625 C629.74197799 1113.68126692 627.18283381 1111.78401094 624.09765625 1109.625 C621.5032277 1107.61516336 619.30135544 1105.33919536 617 1103 C609.37925791 1095.64455409 609.37925791 1095.64455409 601.0625 1089.125 C597.96911144 1086.97856712 595.64243483 1084.67675216 593 1082 C590.8961947 1079.97699228 588.76301856 1077.98674366 586.625 1076 C586.08617188 1075.49210937 585.54734375 1074.98421875 584.9921875 1074.4609375 C582.24339137 1071.90848395 579.48349054 1069.5754902 576.3984375 1067.4375 C573.24495185 1065.24667111 570.66568033 1062.77551819 568 1060 C565.87790917 1057.95352627 563.72145939 1055.94495346 561.5625 1053.9375 C561.01529297 1053.42123047 560.46808594 1052.90496094 559.90429688 1052.37304688 C556.46880368 1049.18149403 552.93029599 1046.58049737 549 1044 C548.071875 1042.824375 548.071875 1042.824375 547.125 1041.625 C544.63094966 1038.54411429 541.85222012 1036.57480187 538.609375 1034.33203125 C538.07828125 1033.89246094 537.5471875 1033.45289063 537 1033 C537 1032.34 537 1031.68 537 1031 C536.46375 1030.73960938 535.9275 1030.47921875 535.375 1030.2109375 C532.53371174 1028.76225434 529.76786569 1027.20960311 527 1025.625 C525.453125 1024.74714844 525.453125 1024.74714844 523.875 1023.8515625 C521.16154067 1022.1040357 519.24990704 1020.28590555 517 1018 C515.27974939 1016.83001589 513.52718521 1015.70654414 511.75 1014.625 C507.60174833 1012.04889158 503.70464328 1009.32254204 499.84375 1006.33984375 C498.03607247 1005.02621368 496.21093211 1003.94271091 494.25 1002.875 C491 1001 491 1001 489.125 999.09375 C486.8259461 996.82850572 484.50398879 995.30099889 481.75 993.625 C477.63531094 991.06766337 473.7535106 988.37797715 469.92578125 985.4140625 C467.22576118 983.43149198 464.36834655 981.75096916 461.46875 980.078125 C460.9840625 979.72234375 460.499375 979.3665625 460 979 C460 978.34 460 977.68 460 977 C459.29488281 976.7421875 458.58976562 976.484375 457.86328125 976.21875 C454.75730685 974.89669814 452.04021935 973.30252146 449.1875 971.5 C448.21167969 970.8915625 447.23585938 970.283125 446.23046875 969.65625 C445.49441406 969.1096875 444.75835938 968.563125 444 968 C444 967.34 444 966.68 444 966 C443.44441406 965.73445313 442.88882812 965.46890625 442.31640625 965.1953125 C434.52872686 961.17671234 427.40485261 955.94266565 420.41015625 950.69921875 C418.13248389 948.99103353 418.13248389 948.99103353 415.93359375 948.01953125 C414 947 414 947 412.125 945.09375 C409.63189333 942.63730666 407.06273608 941.18450484 404 939.5 C400.04216405 937.32319023 397.15790814 935.19520627 394 932 C391.13693973 930.10462211 388.21028159 928.35118975 385.265625 926.5859375 C384.51796875 926.06257813 383.7703125 925.53921875 383 925 C383 924.34 383 923.68 383 923 C382.26523438 922.731875 381.53046875 922.46375 380.7734375 922.1875 C378.06429894 921.02753082 375.99883823 919.73248545 373.625 918 C370.46365022 915.72478614 367.27946796 913.51131037 364.015625 911.38671875 C362.98961182 910.71672852 362.98961182 910.71672852 361.94287109 910.03320312 C360.57421116 909.14252384 359.20216991 908.25701706 357.82666016 907.37695312 C356.18317456 906.30244774 354.58645338 905.15705333 353 904 C353 903.34 353 902.68 353 902 C352.29488281 901.7421875 351.58976562 901.484375 350.86328125 901.21875 C347.75730685 899.89669814 345.04021935 898.30252146 342.1875 896.5 C341.21167969 895.8915625 340.23585938 895.283125 339.23046875 894.65625 C338.49441406 894.1096875 337.75835938 893.563125 337 893 C337 892.34 337 891.68 337 891 C335.93458984 890.60941406 335.93458984 890.60941406 334.84765625 890.2109375 C331.8258495 888.92594423 329.20588594 887.3884503 326.4375 885.625 C325.50808594 885.03976562 324.57867188 884.45453125 323.62109375 883.8515625 C321 882 321 882 319 879.9921875 C316.70934408 877.71047945 314.31970502 876.18262165 311.5625 874.5 C308.73198382 872.76783433 306.0716632 871.05764214 303.484375 868.9765625 C300.20381928 866.36656062 296.65627806 864.42090997 293.01171875 862.3671875 C292.01591797 861.69042969 292.01591797 861.69042969 291 861 C291 860.34 291 859.68 291 859 C290.17822266 858.60941406 290.17822266 858.60941406 289.33984375 858.2109375 C286.64792863 856.81779278 284.12100665 855.25023723 281.5625 853.625 C280.17224609 852.74714844 280.17224609 852.74714844 278.75390625 851.8515625 C276.04170657 850.02804101 273.54807634 848.04401762 271 846 C269.11791403 844.70889435 267.22128936 843.43878916 265.3125 842.1875 C260.56507701 839.0537331 255.88686638 835.84326691 251.25390625 832.54296875 C248.95633003 830.92280099 248.95633003 830.92280099 246.21484375 829.42578125 C245.48394531 828.95527344 244.75304688 828.48476562 244 828 C244 827.34 244 826.68 244 826 C243.27425781 825.731875 242.54851562 825.46375 241.80078125 825.1875 C239.03135976 824.01329619 236.69080566 822.6605676 234.1875 821 C233.39730469 820.484375 232.60710937 819.96875 231.79296875 819.4375 C230.90544922 818.7259375 230.90544922 818.7259375 230 818 C230 817.34 230 816.68 230 816 C229.29488281 815.7421875 228.58976562 815.484375 227.86328125 815.21875 C224.75730685 813.89669814 222.04021935 812.30252146 219.1875 810.5 C218.21167969 809.8915625 217.23585938 809.283125 216.23046875 808.65625 C215.49441406 808.1096875 214.75835938 807.563125 214 807 C214 806.34 214 805.68 214 805 C213.46503906 804.74089844 212.93007812 804.48179687 212.37890625 804.21484375 C209.51139471 802.75048236 206.72731106 801.17001195 203.9375 799.5625 C202.89464844 798.96566406 201.85179687 798.36882813 200.77734375 797.75390625 C198.44584718 796.28155469 196.81915407 795.02428123 195 793 C194.2279348 792.33139718 194.2279348 792.33139718 193.44027233 791.64928722 C190.90943301 788.75116798 191.61283597 784.88332925 191.65942383 781.21411133 C191.65898575 780.31634476 191.65854767 779.41857819 191.65809631 778.49360657 C191.66018821 775.52286109 191.68353824 772.55267828 191.70703125 769.58203125 C191.71262578 767.52365935 191.71689655 765.46528345 191.71989441 763.40690613 C191.73135445 757.98659252 191.76083171 752.56651968 191.79400635 747.14630127 C191.8246822 741.61644752 191.83839444 736.08655491 191.85351562 730.55664062 C191.8857002 719.70432124 191.93691064 708.85218063 192 698 C193.87988281 697.39208984 193.87988281 697.39208984 196 697 C197.921875 698.7265625 197.921875 698.7265625 200 701 C201.72025061 702.16998411 203.47281479 703.29345586 205.25 704.375 C209.39825167 706.95110842 213.29535672 709.67745796 217.15625 712.66015625 C218.96392753 713.97378632 220.78906789 715.05728909 222.75 716.125 C226 718 226 718 227.88671875 719.9140625 C230.13262364 722.13090762 232.36805443 723.61507868 235.0625 725.25 C240.05185341 728.34914322 244.78617339 731.69117417 249.4921875 735.203125 C251.99333858 737.06037269 251.99333858 737.06037269 254.8203125 738.609375 C255.53960938 739.06828125 256.25890625 739.5271875 257 740 C257 740.66 257 741.32 257 742 C257.70511719 742.2578125 258.41023438 742.515625 259.13671875 742.78125 C262.24269315 744.10330186 264.95978065 745.69747854 267.8125 747.5 C268.78832031 748.1084375 269.76414062 748.716875 270.76953125 749.34375 C271.50558594 749.8903125 272.24164062 750.436875 273 751 C273 751.66 273 752.32 273 753 C273.55558594 753.26554687 274.11117188 753.53109375 274.68359375 753.8046875 C282.47127314 757.82328766 289.59514739 763.05733435 296.58984375 768.30078125 C298.67920828 769.77383404 300.68099137 770.9400355 303 772 C303 772.66 303 773.32 303 774 C303.804375 774.39058594 303.804375 774.39058594 304.625 774.7890625 C307.46628826 776.23774566 310.23213431 777.79039689 313 779.375 C314.546875 780.25285156 314.546875 780.25285156 316.125 781.1484375 C318.83845933 782.8959643 320.75009296 784.71409445 323 787 C324.72025061 788.16998411 326.47281479 789.29345586 328.25 790.375 C332.3480157 792.92403099 336.22277069 795.60103114 340.046875 798.5390625 C342.83471251 800.62436496 345.73861977 802.5179929 348.64453125 804.43359375 C354.16917251 808.107526 359.60259519 811.90951371 364.875 815.9375 C369.10914448 819.14725469 373.53153834 822.05091721 377.96484375 824.9765625 C381.60651673 827.40434449 385.18154271 829.91781638 388.74609375 832.45703125 C391.04366997 834.07719901 391.04366997 834.07719901 393.78515625 835.57421875 C394.51605469 836.04472656 395.24695312 836.51523438 396 837 C396 837.66 396 838.32 396 839 C396.55558594 839.26554687 397.11117188 839.53109375 397.68359375 839.8046875 C405.4557249 843.81526445 412.55610018 849.04930691 419.578125 854.2265625 C422.32962237 856.24136864 425.15337914 858.12244156 428 860 C430.54879279 861.79842819 433.09337855 863.6024414 435.6328125 865.4140625 C437.88390509 867.00923797 437.88390509 867.00923797 440.0546875 867.9609375 C442.49562798 869.26473301 444.05032019 871.04299056 446 873 C447.72025061 874.16998411 449.47281479 875.29345586 451.25 876.375 C455.36468906 878.93233663 459.2464894 881.62202285 463.07421875 884.5859375 C465.77423882 886.56850802 468.63165345 888.24903084 471.53125 889.921875 C472.0159375 890.27765625 472.500625 890.6334375 473 891 C473 891.66 473 892.32 473 893 C473.7425 893.28875 474.485 893.5775 475.25 893.875 C477.56900199 894.82368263 479.76932676 895.86559779 482 897 C481.5875 896.41734375 481.175 895.8346875 480.75 895.234375 C477.43628954 890.53008961 474.18046083 885.7955386 471 881 C468.545339 877.2991265 466.05916502 873.6293613 463.5 870 C460.23489489 865.3694873 457.10034146 860.65897636 453.96875 855.9375 C452.17863608 853.26653637 450.35284437 850.6276702 448.5 848 C445.23592686 843.37095082 442.10185296 838.66233309 438.97265625 833.94140625 C437.16434697 831.24505597 435.31410042 828.58657129 433.4375 825.9375 C430.35253636 821.57065649 427.48920376 817.08876121 424.67578125 812.54296875 C423.03748609 809.9682341 423.03748609 809.9682341 421.07421875 807.61328125 C418.19473766 803.98546045 415.81064687 800.09345643 413.35546875 796.171875 C411.09127764 792.59274129 408.6660582 789.29868218 406 786 C405.30010916 784.85295668 404.62767503 783.68809916 404 782.5 C402.27158284 779.38351037 400.25483828 776.77022989 398 774 C394.46300637 769.10824046 391.1053956 764.17565933 388 759 C386.44094126 756.58789851 384.84703971 754.19957756 383.25 751.8125 C382.80462891 751.14541016 382.35925781 750.47832031 381.90039062 749.79101562 C378.94183314 745.37239081 375.91856129 741.00543653 372.84765625 736.6640625 C370.49243183 733.26815752 368.21725419 729.82183649 365.9375 726.375 C362.89726978 721.78037062 359.78320771 717.30584781 356.41796875 712.94140625 C354.05201732 709.7020733 351.98966263 706.27047506 349.86328125 702.87109375 C347.32927484 698.96649267 344.55704146 695.25613711 341.7890625 691.515625 C340.27588773 689.38792947 338.94452895 687.28376251 337.6875 685 C336.24375764 682.10414398 336.24375764 682.10414398 334.5390625 680.57421875 C332.78897473 678.78415435 331.8321405 677.03491198 330.6875 674.8125 C328.61425468 670.96926017 326.27542404 667.60580223 323.6015625 664.1640625 C321.7659941 661.68380667 320.13591046 659.1160154 318.5 656.5 C315.98907685 652.49355998 313.33977635 648.70018509 310.4609375 644.953125 C308.37880071 642.16951967 306.48724158 639.2710543 304.578125 636.3671875 C302.32281022 632.98421532 299.96867334 629.67316801 297.61328125 626.359375 C293 619.6125908 293 619.6125908 293 617 C292.34 617 291.68 617 291 617 C289.84375 615.3046875 289.84375 615.3046875 288.5 612.875 C285.89308805 608.3704095 283.04899755 604.14677579 280 599.9375 C276.21197592 594.69835624 272.54578477 589.40708911 269 584 C264.62566101 577.38888561 260.20060301 570.82549124 255.63671875 564.34375 C252.64293151 560.05670383 249.77234185 555.68785619 246.89404297 551.32275391 C241.98332902 543.88041735 237.02575788 536.51677778 231.69140625 529.3671875 C229.98402741 526.97764576 228.49686459 524.52571725 227 522 C221.73839218 513.91313755 216.22520268 506.00751531 210.67578125 498.1171875 C208 494.23026316 208 494.23026316 208 492 C207.34 492 206.68 492 206 492 C204.64339182 489.9815587 203.40341482 487.97588737 202.1875 485.875 C199.03688494 480.52777912 199.03688494 480.52777912 195.25 475.625 C193.16266394 473.18977459 191.71612497 470.75492478 190.15527344 467.97070312 C188.12175051 464.50185337 185.80108694 461.23238062 183.5 457.9375 C182.55169268 456.57188578 181.60376977 455.20600453 180.65625 453.83984375 C180.20435303 453.18886719 179.75245605 452.53789063 179.28686523 451.8671875 C177.04189402 448.60982839 174.86445552 445.30822645 172.68359375 442.0078125 C168.84623636 436.20967374 164.90775932 430.4826215 160.95874023 424.76025391 C158.87823242 421.74327707 156.80835877 418.72242773 154.7890625 415.6640625 C153.04628907 412.97721551 153.04628907 412.97721551 151 410.5625 C149 408 149 408 147.1796875 404.76953125 C145.07052227 401.02873844 142.65847058 397.58750697 140.125 394.125 C136.29406893 388.82482376 132.58434608 383.47084401 129 378 C125.03492936 371.96909423 121.03659401 365.99591456 116.75 360.1875 C114.54552391 357.19786805 112.48116149 354.2531427 110.6875 351 C109.24546171 348.10555109 109.24546171 348.10555109 107.546875 346.5859375 C105.75201754 344.74575536 104.74763251 342.9020087 103.5625 340.625 C101.628312 336.909827 99.72147325 334.40184157 97 331 C96.67 562.33 96.34 793.66 96 1032 C64.98 1032 33.96 1032 2 1032 C0 1030 0 1030 -0.24934233 1027.04105645 C-0.24903037 1025.75608806 -0.24871841 1024.47111968 -0.24839699 1023.14721286 C-0.25223125 1022.07048839 -0.25223125 1022.07048839 -0.25614297 1020.97201191 C-0.26232771 1018.53725824 -0.25410732 1016.10275812 -0.24609566 1013.66801262 C-0.24757342 1011.90908989 -0.24992897 1010.15016772 -0.25308865 1008.39124721 C-0.25926344 1003.51682999 -0.25284624 998.64249537 -0.24453239 993.76808426 C-0.2376952 988.48068588 -0.24239959 983.19329633 -0.24568737 977.90589631 C-0.24984595 968.62555959 -0.24652844 959.34524845 -0.23841095 950.0649147 C-0.22637381 936.26525674 -0.22573627 922.465615 -0.22749493 908.66595274 C-0.23012695 885.45620908 -0.22343844 862.2464793 -0.21146011 839.03673935 C-0.19962282 816.04541851 -0.19191147 793.05410234 -0.18975449 770.06277847 C-0.18968566 769.3492562 -0.18961684 768.63573392 -0.18954593 767.90058976 C-0.18891955 761.38384432 -0.18834416 754.86709887 -0.18782998 748.35035342 C-0.18655104 732.14908159 -0.18463231 715.94780987 -0.18227959 699.74653816 C-0.18211963 698.6397753 -0.18211963 698.6397753 -0.18195645 697.5106536 C-0.17671101 661.60231548 -0.16409491 625.69398045 -0.15087891 589.78564453 C-0.14629566 577.32169599 -0.14174497 564.85774743 -0.1373291 552.39379883 C-0.1370552 551.62080344 -0.1367813 550.84780805 -0.13649911 550.05138856 C-0.12381539 514.12950738 -0.1163612 478.20762567 -0.11025951 442.28574284 C-0.10986338 439.95421022 -0.109465 437.6226776 -0.10906615 435.29114499 C-0.10642663 419.84020232 -0.10387733 404.38925964 -0.10138843 388.93831694 C-0.09643519 358.19370289 -0.09095181 327.44908894 -0.08510434 296.70447504 C-0.08482586 295.24027369 -0.08454775 293.77607234 -0.08427001 292.31187099 C-0.06825523 207.90435339 -0.0419337 123.4968392 0 0 Z " fill="#000000" transform="translate(1605,802)"/>
<path d="M0 0 C1.32 0 2.64 0 4 0 C4.01522975 87.37499517 4.03025965 174.74999068 4.04234314 294.83473206 C4.04248259 296.30271322 4.04262204 297.77069438 4.04276149 299.23867554 C4.04568397 330.04971969 4.04840071 360.86076386 4.05087968 391.67180805 C4.0521251 407.1484461 4.05341008 422.62508415 4.05473244 438.10172219 C4.05493169 440.43636337 4.05512981 442.77100455 4.05532788 445.10564574 C4.05838907 481.07006453 4.06230016 517.03448299 4.06866455 552.99890137 C4.06880145 553.77259185 4.06893835 554.54628233 4.0690794 555.34341798 C4.07129186 567.81817097 4.07357543 580.29292395 4.07586844 592.76767693 C4.08246924 628.68419136 4.08854712 664.60070552 4.09113979 700.5172205 C4.0912201 701.62433159 4.0912201 701.62433159 4.09130202 702.75380856 C4.09246759 718.95352141 4.09336253 735.15323426 4.09400098 751.35294714 C4.09426262 757.87045599 4.09456324 764.38796485 4.09487724 770.90547371 C4.09491067 771.61880148 4.0949441 772.33212925 4.09497854 773.06707301 C4.09607626 796.07793376 4.10035166 819.08879258 4.10628221 842.09965255 C4.11240367 865.90895344 4.11501716 889.71825155 4.11350138 913.52755337 C4.11273769 927.26908588 4.11479615 941.0106114 4.12079754 954.75214265 C4.12452705 963.91313809 4.12467815 973.07412891 4.12183181 982.23512466 C4.12031142 987.4666521 4.12042983 992.69816626 4.12488318 997.92969232 C4.12889468 1002.67784929 4.12840441 1007.42598249 4.12413998 1012.17413905 C4.12341881 1013.89183347 4.12441655 1015.60952957 4.12723524 1017.32722182 C4.13079309 1019.63984424 4.12831951 1021.95237984 4.1241985 1024.26499933 C4.12435448 1025.55137154 4.12451046 1026.83774375 4.12467116 1028.16309693 C4 1031 4 1031 3 1032 C-28.02 1032 -59.04 1032 -91 1032 C-91.33 800.34 -91.66 568.68 -92 330 C-97.73842134 337.8422189 -97.73842134 337.8422189 -103 346 C-104.0694957 347.55129822 -105.15335602 349.09277313 -106.25 350.625 C-109.41672043 355.11174284 -112.38460897 359.69728726 -115.31640625 364.33984375 C-119.34968126 370.71260542 -123.51728062 376.81694949 -128.2890625 382.6640625 C-130.03469734 385.04737217 -131.45816039 387.53200905 -132.89746094 390.10839844 C-134.85398488 393.46516271 -137.09209483 396.62671805 -139.3125 399.8125 C-139.79887939 400.51536133 -140.28525879 401.21822266 -140.78637695 401.94238281 C-143.94350242 406.49970678 -147.12975048 411.03635594 -150.3203125 415.5703125 C-152.27403965 418.39640154 -154.16830838 421.25869494 -156.0625 424.125 C-158.8353213 428.31110037 -161.72133694 432.35576388 -164.76953125 436.34375 C-166.35006326 438.47119626 -167.66151477 440.71342106 -169 443 C-170.46778491 445.22313621 -171.95566176 447.43208809 -173.4453125 449.640625 C-175.36854488 452.55929927 -177.1575808 455.54946317 -178.921875 458.56640625 C-179.27765625 459.03949219 -179.6334375 459.51257812 -180 460 C-180.66 460 -181.32 460 -182 460 C-182.39058594 461.06734375 -182.39058594 461.06734375 -182.7890625 462.15625 C-184.06993097 465.16422498 -185.60715706 467.75173761 -187.375 470.5 C-188.25285156 471.87671875 -188.25285156 471.87671875 -189.1484375 473.28125 C-190.98016071 475.9708689 -192.95768804 478.468342 -195 481 C-196.0832279 482.52717376 -197.14706387 484.06835777 -198.1875 485.625 C-198.95126953 486.75808594 -198.95126953 486.75808594 -199.73046875 487.9140625 C-201.14531026 490.06412115 -201.14531026 490.06412115 -202 493 C-202.66 493 -203.32 493 -204 493 C-204.40798828 493.83917969 -204.40798828 493.83917969 -204.82421875 494.6953125 C-207.59546592 500.12732522 -210.60882637 505.57449561 -214.625 510.1875 C-216.76279731 512.71910207 -218.26895734 515.22247842 -219.88037109 518.09838867 C-221.72293801 521.22785961 -223.85870566 524.13282001 -226 527.0625 C-229.09155486 531.3204142 -232.10525863 535.60386035 -235 540 C-235.77680886 541.17222963 -236.55417958 542.34408708 -237.33203125 543.515625 C-237.73421875 544.12148437 -238.13640625 544.72734375 -238.55078125 545.3515625 C-242.34967033 551.06753801 -246.19516957 556.73844751 -250.15625 562.34375 C-252.93390813 566.34546087 -255.6147478 570.41060166 -258.30639648 574.47045898 C-260.67635252 578.03779057 -263.08268846 581.5700508 -265.5625 585.0625 C-268.78145825 589.60556874 -271.77504452 594.27840821 -274.71704102 599.00415039 C-276.54304439 601.89806009 -278.4508456 604.61590347 -280.66015625 607.22265625 C-282.74666882 609.69930139 -284.23230184 612.12144485 -285.7734375 614.953125 C-287.94538881 618.5776552 -290.54354888 621.90373628 -293.05078125 625.30078125 C-295.10443136 628.14461337 -296.96924487 631.05174744 -298.796875 634.04296875 C-302.10352883 639.42164918 -305.6124539 644.57315291 -309.5625 649.5 C-311.81241051 652.33812241 -313.6939529 655.10637924 -315.375 658.3125 C-318.0145207 663.32758933 -321.4234153 667.65578708 -324.9140625 672.10546875 C-326.97480909 674.96504408 -328.45613642 677.84067338 -330 681 C-331.33333333 682.33333333 -332.66666667 683.66666667 -334 685 C-334.95975479 686.67645479 -335.9174933 688.35413122 -336.86010742 690.0402832 C-338.78962726 693.35753652 -340.99331874 696.47910231 -343.1875 699.625 C-343.90824707 700.66660278 -343.90824707 700.66660278 -344.64355469 701.72924805 C-346.91219699 705.00588426 -349.19151079 708.27503043 -351.47265625 711.54296875 C-355.56045898 717.41173528 -359.51252143 723.32895112 -363.3203125 729.3828125 C-366.63154876 734.54218063 -370.21966358 739.51064557 -373.78515625 744.49609375 C-377.39369847 749.5797763 -380.68472733 754.72622675 -383.73828125 760.1640625 C-384.15464844 760.76992187 -384.57101562 761.37578125 -385 762 C-385.66 762 -386.32 762 -387 762 C-387.39445313 763.09054687 -387.39445313 763.09054687 -387.796875 764.203125 C-389.01743691 767.04053516 -390.43938855 769.25429232 -392.25 771.75 C-394.5542396 774.96831812 -396.82060915 778.19576226 -399 781.5 C-401.0368528 784.57671976 -403.12135673 787.61107986 -405.25 790.625 C-408.75258789 795.59415031 -412.11443333 800.65151491 -415.44824219 805.73486328 C-417.80848708 809.30924535 -420.31117964 812.66075226 -423 816 C-423.91676774 817.63708525 -424.83254456 819.27475475 -425.73828125 820.91796875 C-427.93377512 824.54087349 -430.52626346 827.88130067 -433.04296875 831.28515625 C-435.15290067 834.21210771 -437.04826417 837.2179573 -438.91796875 840.30078125 C-440 842 -440 842 -442.0625 844.5625 C-443.99519021 846.99394897 -445.42944459 849.42002012 -446.875 852.15625 C-448 854 -448 854 -449.8515625 856.296875 C-452.25202217 859.31708971 -454.32068647 862.49163295 -456.375 865.75 C-457.17142228 866.99898671 -457.96829724 868.24768489 -458.765625 869.49609375 C-459.14912109 870.0979248 -459.53261719 870.69975586 -459.92773438 871.31982422 C-463.29665861 876.59872599 -466.73133255 881.71666921 -470.625 886.625 C-473.5045667 890.25797883 -475.82455329 893.91016018 -478 898 C-476.7260098 897.23439544 -475.45593488 896.46227374 -474.1875 895.6875 C-473.47980469 895.25824219 -472.77210938 894.82898437 -472.04296875 894.38671875 C-470.01130913 893.10449828 -470.01130913 893.10449828 -468.5859375 891.56640625 C-466.41968109 889.42682788 -463.98665005 887.91176665 -461.4375 886.25 C-454.57092418 881.72750253 -447.76293779 877.14768931 -441.25 872.125 C-436.95951568 868.85647909 -432.40992227 866.00809405 -427.83496094 863.15869141 C-424.89846093 861.31096026 -422.4199877 859.46665413 -420 857 C-418.23087062 855.81966755 -416.43650745 854.67670116 -414.625 853.5625 C-411.78714487 851.81522556 -409.10355435 850.08284348 -406.5 848 C-403.03770006 845.23016005 -399.29551075 843.00367716 -395.5234375 840.68359375 C-393.34857874 839.23256569 -391.82550019 837.83022946 -390 836 C-388.19254404 834.75329092 -386.3563372 833.54768613 -384.5 832.375 C-383.5409375 831.76398437 -382.581875 831.15296875 -381.59375 830.5234375 C-379 829 -379 829 -376 828 C-376 827.34 -376 826.68 -376 826 C-373.73701547 824.3633245 -371.48732888 822.85434489 -369.125 821.375 C-368.47402344 820.95476563 -367.82304688 820.53453125 -367.15234375 820.1015625 C-362.26838981 817 -362.26838981 817 -360 817 C-360 816.34 -360 815.68 -360 815 C-357.79784225 813.45640364 -355.60322696 812.02552438 -353.3125 810.625 C-348.98930499 807.95361276 -344.93959127 805.22809318 -341 802 C-339.45231907 800.89559921 -337.89036035 799.8108365 -336.3125 798.75 C-335.54550781 798.22921875 -334.77851562 797.7084375 -333.98828125 797.171875 C-332 796 -332 796 -330 796 C-330 795.34 -330 794.68 -330 794 C-327.79784225 792.45640364 -325.60322696 791.02552438 -323.3125 789.625 C-318.98744497 786.95246342 -314.95311842 784.2127135 -311 781 C-309.11791403 779.70889435 -307.22128936 778.43878916 -305.3125 777.1875 C-300.5441764 774.04580896 -295.87112664 770.80471143 -291.25390625 767.4453125 C-289 766 -289 766 -286.27734375 764.9921875 C-285.15005859 764.50105469 -285.15005859 764.50105469 -284 764 C-283.67 763.01 -283.34 762.02 -283 761 C-280.87933474 759.47807612 -278.78737276 758.10140419 -276.5625 756.75 C-275.28279979 755.95220963 -274.00416017 755.15271561 -272.7265625 754.3515625 C-272.09395508 753.95614258 -271.46134766 753.56072266 -270.80957031 753.15332031 C-267.51825217 751.05561566 -264.35379679 748.78244692 -261.18359375 746.5078125 C-259 745 -259 745 -256.41015625 743.4921875 C-254.21208379 742.13130634 -252.80105622 740.81480474 -251 739 C-249.16819323 737.71745644 -247.31077842 736.47117238 -245.4375 735.25 C-238.53248556 730.7021859 -231.69875346 726.08073567 -225.125 721.0625 C-210.4949187 710 -210.4949187 710 -207 710 C-206.67 709.01 -206.34 708.02 -206 707 C-203.890625 705.53515625 -203.890625 705.53515625 -201.25 704.0625 C-198.29105975 702.36986799 -195.72274848 700.7758392 -193.0625 698.625 C-191 697 -191 697 -188 697 C-187.90742506 709.20420055 -187.83629852 721.40831793 -187.79275131 733.61279774 C-187.77185353 739.27950735 -187.74349567 744.94597722 -187.69824219 750.61254883 C-187.65486295 756.07847648 -187.63087941 761.54417316 -187.62049103 767.01025963 C-187.61308542 769.09834112 -187.59862446 771.18640961 -187.57707977 773.27439308 C-187.5481513 776.19338176 -187.54403959 779.11140922 -187.54589844 782.03051758 C-187.53151733 782.89870117 -187.51713623 783.76688477 -187.50231934 784.66137695 C-187.54273404 790.50496579 -187.54273404 790.50496579 -189.90338135 793.06059265 C-192 794 -192 794 -194 794 C-194 794.66 -194 795.32 -194 796 C-196.20215775 797.54359636 -198.39677304 798.97447562 -200.6875 800.375 C-205.01255503 803.04753658 -209.04688158 805.7872865 -213 809 C-214.88208597 810.29110565 -216.77871064 811.56121084 -218.6875 812.8125 C-223.4558236 815.95419104 -228.12887336 819.19528857 -232.74609375 822.5546875 C-235 824 -235 824 -237.72265625 825.0078125 C-238.84994141 825.49894531 -238.84994141 825.49894531 -240 826 C-240.33 826.99 -240.66 827.98 -241 829 C-243.12066526 830.52192388 -245.21262724 831.89859581 -247.4375 833.25 C-248.71720021 834.04779037 -249.99583983 834.84728439 -251.2734375 835.6484375 C-251.90604492 836.04385742 -252.53865234 836.43927734 -253.19042969 836.84667969 C-256.48174783 838.94438434 -259.64620321 841.21755308 -262.81640625 843.4921875 C-265 845 -265 845 -267.58984375 846.5078125 C-269.78287743 847.86557403 -271.20112472 849.19182821 -273 851 C-274.70663825 852.13867786 -276.43877089 853.2395844 -278.1875 854.3125 C-282.27679861 856.87233653 -286.16703191 859.5457846 -289.9921875 862.48046875 C-293.00163572 864.75804727 -296.09839806 866.90388497 -299.19921875 869.0546875 C-301.29254426 870.50862906 -303.37708645 871.97247126 -305.45703125 873.4453125 C-306.63794665 874.27614712 -307.81893547 875.10687739 -309 875.9375 C-309.56420654 876.3394458 -310.12841309 876.7413916 -310.7097168 877.15551758 C-314.77370528 880 -314.77370528 880 -317 880 C-317 880.66 -317 881.32 -317 882 C-319.20215775 883.54359636 -321.39677304 884.97447562 -323.6875 886.375 C-328.01255503 889.04753658 -332.04688158 891.7872865 -336 895 C-337.88208597 896.29110565 -339.77871064 897.56121084 -341.6875 898.8125 C-348.54436729 903.34728708 -355.33895284 907.94804836 -361.875 912.9375 C-366.10824308 916.14657137 -370.53029734 919.04897495 -374.9609375 921.9765625 C-380.11575662 925.40869143 -385.29016362 928.86453112 -390.15625 932.69921875 C-392 934 -392 934 -394 934 C-394 934.66 -394 935.32 -394 936 C-396.09761867 937.48405009 -398.18785959 938.84719346 -400.375 940.1875 C-401.67153211 941.00107757 -402.96710083 941.81619237 -404.26171875 942.6328125 C-404.90157715 943.03532227 -405.54143555 943.43783203 -406.20068359 943.85253906 C-413.11339974 948.26091978 -419.67517683 953.2115116 -426.296875 958.0390625 C-433.60553963 963.34101285 -441.06858862 968.38551364 -448.59692383 973.36743164 C-452.58057182 976.01625534 -456.44052203 978.76898427 -460.2265625 981.6953125 C-462.79117524 983.58205403 -465.4979917 985.20672533 -468.23828125 986.82421875 C-470.02426296 987.92247107 -470.02426296 987.92247107 -471.328125 989.3984375 C-474.65497898 992.58537706 -478.92245763 994.63339649 -482.87109375 996.96484375 C-485.6863438 998.79598642 -487.66701071 1000.62450686 -490 1003 C-491.78280264 1004.21156185 -493.59754021 1005.37713966 -495.4375 1006.5 C-499.18426489 1008.7928742 -502.59041394 1011.23311547 -506 1014 C-507.54768093 1015.10440079 -509.10963965 1016.1891635 -510.6875 1017.25 C-511.83798828 1018.03117187 -511.83798828 1018.03117187 -513.01171875 1018.828125 C-515 1020 -515 1020 -517 1020 C-517 1020.66 -517 1021.32 -517 1022 C-519.0790173 1023.40826865 -521.16025702 1024.71265116 -523.3125 1026 C-530.31586787 1030.3342335 -536.03859375 1035.30396636 -542 1041 C-543.38776191 1042.23827229 -544.78289956 1043.46836137 -546.1875 1044.6875 C-548.10467899 1046.35190691 -550.01953243 1048.01734448 -551.91796875 1049.703125 C-555.59186912 1052.9590367 -559.33429148 1056.08239239 -563.1875 1059.125 C-566.69453398 1061.90496596 -569.87536456 1064.79091495 -573 1068 C-574.75567861 1069.53059161 -576.53560181 1071.03001271 -578.31640625 1072.53125 C-579.75352717 1073.78497962 -581.10613052 1075.13449284 -582.4375 1076.5 C-585.15500229 1079.15122175 -588.03415629 1081.29231638 -591.08984375 1083.53125 C-593.62116747 1085.47762571 -595.77279759 1087.71568984 -598 1090 C-599.15789892 1091.0101392 -600.32516884 1092.0096047 -601.5 1093 C-603.57741697 1094.75575241 -605.50973716 1096.50973716 -607.4375 1098.4375 C-613.35044465 1104.35044465 -619.86868207 1109.56331385 -626.38671875 1114.7890625 C-629.07896011 1117.06680332 -631.52266412 1119.49169742 -634 1122 C-641.27098475 1128.76016818 -648.70527736 1135.33377708 -656.25390625 1141.78125 C-656.84357178 1142.2851123 -657.4332373 1142.78897461 -658.04077148 1143.30810547 C-659.25977963 1144.34944638 -660.4793403 1145.39014087 -661.69946289 1146.43017578 C-666.26763654 1150.33659024 -670.71581386 1154.35052818 -675.109375 1158.453125 C-677 1160 -677 1160 -679 1160 C-679.24105469 1160.58910156 -679.48210937 1161.17820312 -679.73046875 1161.78515625 C-681.2438085 1164.42535206 -682.85948212 1165.65236262 -685.3125 1167.4375 C-688.84332155 1170.0884184 -691.9112878 1172.83595336 -695 1176 C-700.73316372 1181.35164023 -706.65752213 1186.37049325 -712.81640625 1191.22265625 C-715.39259295 1193.3195524 -717.68497562 1195.62066938 -720 1198 C-722 1199.66666667 -724 1201.33333333 -726 1203 C-726.78375 1203.78375 -727.5675 1204.5675 -728.375 1205.375 C-734.5614946 1211.5614946 -741.41027625 1217.02599336 -748.16796875 1222.5703125 C-750.92097924 1224.93220564 -753.45522183 1227.41742809 -756 1230 C-757.21363593 1231.12121476 -758.44073945 1232.22823857 -759.6875 1233.3125 C-760.26886719 1233.82425781 -760.85023438 1234.33601563 -761.44921875 1234.86328125 C-763 1236 -763 1236 -765 1236 C-765.25136719 1236.59941406 -765.50273438 1237.19882813 -765.76171875 1237.81640625 C-767.16650809 1240.29362153 -768.48305348 1241.32960288 -770.8125 1242.9375 C-774.25412135 1245.32732991 -777.06354458 1248.01063547 -780 1251 C-781.9270321 1252.82602904 -783.85914276 1254.64027256 -785.8125 1256.4375 C-786.59862671 1257.16090576 -786.59862671 1257.16090576 -787.40063477 1257.89892578 C-790.89536196 1261.08004423 -794.49917208 1263.97908483 -798.3359375 1266.7421875 C-800.79169312 1268.59841593 -802.85392247 1270.79889484 -805 1273 C-806.15789892 1274.0101392 -807.32516884 1275.0096047 -808.5 1276 C-810.57741697 1277.75575241 -812.50973716 1279.50973716 -814.4375 1281.4375 C-820.35044465 1287.35044465 -826.86868207 1292.56331385 -833.38671875 1297.7890625 C-836.07768038 1300.06572062 -838.52672699 1302.4904738 -841 1305 C-842.21363593 1306.12121476 -843.44073945 1307.22823857 -844.6875 1308.3125 C-845.55955078 1309.08013672 -845.55955078 1309.08013672 -846.44921875 1309.86328125 C-848 1311 -848 1311 -850 1311 C-850.36158203 1311.88365234 -850.36158203 1311.88365234 -850.73046875 1312.78515625 C-852.2438085 1315.42535206 -853.85948212 1316.65236262 -856.3125 1318.4375 C-859.84332155 1321.0884184 -862.9112878 1323.83595336 -866 1327 C-871.47243501 1332.11406316 -877.0863339 1336.91132706 -883.04296875 1341.44921875 C-885.5644385 1343.44726963 -887.75652467 1345.69748584 -890 1348 C-891.15806915 1349.00994403 -892.32536387 1350.00937339 -893.5 1351 C-895.52988591 1352.71692705 -897.42910842 1354.42910842 -899.3125 1356.3125 C-905.76264218 1362.76264218 -912.67713889 1368.59201736 -919.83203125 1374.23828125 C-922.40826469 1376.33176103 -924.68239756 1378.62445749 -927 1381 C-935.34118756 1388.70169651 -935.34118756 1388.70169651 -939.75 1392.15234375 C-942.07100909 1393.80250273 -942.07100909 1393.80250273 -943 1396 C-943.66 1396 -944.32 1396 -945 1396 C-944.419087 1392.04695786 -943.21201509 1389.27029321 -941.125 1385.875 C-940.61195313 1385.02679687 -940.09890625 1384.17859375 -939.5703125 1383.3046875 C-938.17585058 1381.25808916 -936.75601124 1379.72214876 -935 1378 C-934.04353006 1376.3509139 -933.09049022 1374.69956468 -932.16796875 1373.03125 C-929.42034092 1368.25276681 -926.34253771 1363.65842894 -922.875 1359.375 C-921.04380993 1357.05549257 -919.68268798 1354.65860815 -918.2578125 1352.078125 C-916.07553813 1348.47262821 -913.50735001 1345.14350048 -911.0078125 1341.75390625 C-908.21055397 1337.91719952 -905.60453309 1333.96881232 -903 1330 C-898.63236736 1323.39922459 -894.21746492 1316.84363207 -889.65625 1310.375 C-887.52291577 1307.31587922 -885.46740682 1304.20821911 -883.41015625 1301.09765625 C-882.08037384 1299.11955887 -880.70960592 1297.18092549 -879.3125 1295.25 C-877.06644773 1292.18409174 -877.06644773 1292.18409174 -875.5390625 1289.55859375 C-874.13479059 1287.2240808 -872.64746354 1285.02660937 -871.0625 1282.8125 C-867.66126276 1277.99467981 -864.38532398 1273.10104705 -861.125 1268.1875 C-857.53237996 1262.77341154 -853.90685692 1257.39039931 -850.1875 1252.0625 C-847.46392191 1248.15903248 -844.84206334 1244.21933677 -842.3125 1240.1875 C-839.82709874 1236.22926836 -837.1888675 1232.47641267 -834.33984375 1228.7734375 C-833.12395561 1227.16406953 -831.99385233 1225.49077849 -830.875 1223.8125 C-829 1221 -829 1221 -827 1218.5625 C-824.88738008 1215.98753689 -824.88738008 1215.98753689 -823.19140625 1212.78515625 C-821.02903756 1208.94867952 -818.53849476 1205.42358356 -815.9375 1201.875 C-813.10898409 1197.99997523 -810.42834884 1194.14410529 -808 1190 C-807.05125907 1188.55615109 -806.09297129 1187.11852782 -805.125 1185.6875 C-802.64339475 1182.00830416 -800.31824588 1178.26420045 -798.078125 1174.43359375 C-797.54445313 1173.72396484 -797.54445313 1173.72396484 -797 1173 C-796.34 1173 -795.68 1173 -795 1173 C-794.73832031 1172.27554687 -794.47664062 1171.55109375 -794.20703125 1170.8046875 C-792.96967405 1167.92953387 -791.51442453 1165.66081986 -789.6875 1163.125 C-789.06617188 1162.25488281 -788.44484375 1161.38476562 -787.8046875 1160.48828125 C-786.7288116 1159.0048766 -785.65128641 1157.52266254 -784.5703125 1156.04296875 C-782.20927758 1152.79471264 -780.17327659 1149.53321376 -778.2265625 1146.01171875 C-776.03175562 1142.41195588 -773.44806203 1139.08464489 -770.9453125 1135.6953125 C-768.90975487 1132.87496157 -767.07709559 1129.98780581 -765.26953125 1127.01953125 C-762.14395801 1122.04746551 -758.64394735 1117.31248594 -755.2421875 1112.52734375 C-752.21740347 1108.24788473 -749.29401217 1103.93424699 -746.5 1099.5 C-743.16624861 1094.20915795 -739.62180735 1089.09645822 -736 1084 C-730.31734825 1075.96144251 -724.83597394 1067.8009704 -719.40625 1059.58984375 C-716.295135 1054.89834852 -713.09753132 1050.27764932 -709.85546875 1045.67578125 C-707.84000466 1042.76926988 -705.88654802 1039.82641558 -703.9375 1036.875 C-701.63449685 1033.39599525 -699.29093772 1029.99647935 -696.75 1026.6875 C-694.92199817 1024.30615708 -693.32912891 1021.93894989 -691.875 1019.3125 C-690 1016 -690 1016 -688.15625 1013.71484375 C-685.75388262 1010.69012395 -683.68183445 1007.51236551 -681.625 1004.25 C-680.82857772 1003.00101329 -680.03170276 1001.75231511 -679.234375 1000.50390625 C-678.85087891 999.9020752 -678.46738281 999.30024414 -678.07226562 998.68017578 C-674.2225409 992.64788855 -670.23831974 986.88357489 -665.7109375 981.3359375 C-663.95681788 978.94104359 -662.53444461 976.44019919 -661.08886719 973.85107422 C-659.2433721 970.71373257 -657.08752624 967.80831916 -654.9375 964.875 C-652.1083655 960.99912777 -649.43980284 957.13796106 -647 953 C-646.03507979 951.59428059 -645.05495976 950.19891325 -644.0625 948.8125 C-640.66126282 943.9946799 -637.38532067 939.10104931 -634.125 934.1875 C-629.7970959 927.66525127 -625.39328932 921.20650865 -620.90625 914.79296875 C-619.20459376 912.2997634 -617.61569468 909.77465276 -616.0625 907.1875 C-615.381875 906.135625 -614.70125 905.08375 -614 904 C-613.34 904 -612.68 904 -612 904 C-611.88398437 903.41089844 -611.76796875 902.82179688 -611.6484375 902.21484375 C-610.96265968 899.87245805 -610.09593092 898.49253966 -608.625 896.5625 C-606.54244665 893.8091856 -604.77271004 890.96211189 -603 888 C-602.03507979 886.59428059 -601.05495976 885.19891325 -600.0625 883.8125 C-596.60336179 878.9212345 -593.30054293 873.93612241 -590 868.9375 C-586.32017573 863.37136012 -582.55534334 857.98528276 -578.3671875 852.78515625 C-576.74392099 850.66563397 -575.47665411 848.3994378 -574.20703125 846.0546875 C-571.49533373 841.43865871 -568.29203741 837.12016992 -565.21875 832.73925781 C-560.2180656 825.60286446 -555.26332568 818.43699256 -550.45703125 811.16796875 C-548.86140261 808.793776 -547.21542996 806.45962613 -545.5625 804.125 C-543.12278841 800.66339167 -540.80924954 797.15219302 -538.5625 793.5625 C-536.17367352 789.76282298 -533.6656897 786.11075117 -531 782.5 C-527.73571922 778.0766176 -524.76223564 773.53912368 -521.84375 768.8828125 C-516.52186593 760.56173105 -510.73699081 752.54130008 -504.82421875 744.6328125 C-503.07421025 742.1071043 -501.57798713 739.50375368 -500.07788086 736.82470703 C-498.23174367 733.69944557 -496.08163228 730.80027793 -493.9375 727.875 C-491.1083655 723.99912777 -488.43980284 720.13796106 -486 716 C-485.03507979 714.59428059 -484.05495976 713.19891325 -483.0625 711.8125 C-479.66126276 706.99467981 -476.38532398 702.10104705 -473.125 697.1875 C-469.53237996 691.77341154 -465.90685692 686.39039931 -462.1875 681.0625 C-459.46392191 677.15903248 -456.84206334 673.21933677 -454.3125 669.1875 C-451.82709874 665.22926836 -449.1888675 661.47641267 -446.33984375 657.7734375 C-445.12395561 656.16406953 -443.99385233 654.49077849 -442.875 652.8125 C-441 650 -441 650 -439.0625 647.6875 C-437.32741071 645.42662608 -436.07673489 643.37316637 -434.75 640.875 C-432.18039739 636.1096998 -429.08140126 631.851294 -425.85546875 627.51171875 C-424.42623274 625.57698453 -423.06047745 623.63992383 -421.75 621.625 C-420 619 -420 619 -418.0625 616.6875 C-415.77190551 613.70278597 -414.07897218 610.61100067 -412.34375 607.28125 C-410.78608858 604.63684806 -408.92802573 602.38656368 -407 600 C-405.68879879 598.07566624 -404.39773261 596.13748993 -403.125 594.1875 C-400.76117932 590.60222551 -398.36893415 587.09078499 -395.75 583.6875 C-393.61582844 580.90280556 -391.87485108 578.06170407 -390.19140625 574.9765625 C-388.02722575 571.38615157 -385.44744455 568.08313929 -382.95703125 564.71484375 C-380.84709933 561.78789229 -378.95173583 558.7820427 -377.08203125 555.69921875 C-376 554 -376 554 -373.9375 551.4375 C-372.00480979 549.00605103 -370.57055541 546.57997988 -369.125 543.84375 C-368 542 -368 542 -366.14453125 539.69921875 C-363.76290458 536.70157935 -361.72020596 533.54936088 -359.6875 530.3125 C-354.60735004 522.3211823 -349.29911964 514.54037464 -343.45703125 507.08203125 C-341.84458043 504.77791252 -340.49968543 502.36072308 -339.12231445 499.91137695 C-337.1504356 496.55313473 -334.91298979 493.38096381 -332.6875 490.1875 C-332.20112061 489.48391357 -331.71474121 488.78032715 -331.21362305 488.05541992 C-328.60625725 484.28864807 -325.96829545 480.54530006 -323.3125 476.8125 C-319.81897049 471.87599091 -316.76184112 466.70285739 -313.69921875 461.4921875 C-313.13847656 460.66976563 -312.57773438 459.84734375 -312 459 C-311.34 459 -310.68 459 -310 459 C-309.73703125 458.27296875 -309.4740625 457.5459375 -309.203125 456.796875 C-307.98256309 453.95946484 -306.56061145 451.74570768 -304.75 449.25 C-301.39657434 444.56353557 -298.17861678 439.80606857 -295 435 C-293.50150156 432.75029608 -292.00120525 430.50180474 -290.5 428.25390625 C-289.49519043 426.74407521 -288.49522632 425.23100885 -287.5 423.71484375 C-285.15956797 420.16153158 -282.78870348 416.68044941 -280.1875 413.3125 C-276.96891327 409.09708064 -274.16604614 404.62964744 -271.33032227 400.15380859 C-268.78517641 396.15869104 -266.10193921 392.34453689 -263.203125 388.6015625 C-261.62625518 386.50248254 -260.34077253 384.25493562 -259 382 C-258.360625 381.21625 -257.72125 380.4325 -257.0625 379.625 C-254.66969395 376.57961048 -252.85899423 373.38630069 -251 370 C-249.375 367.0625 -249.375 367.0625 -248 365 C-247.34 365 -246.68 365 -246 365 C-245.731875 364.26523438 -245.46375 363.53046875 -245.1875 362.7734375 C-244.02753082 360.06429894 -242.73248545 357.99883823 -241 355.625 C-237.95094629 351.36771132 -235.01409382 347.05373706 -232.125 342.6875 C-228.13529083 336.66742974 -224.05575658 330.71837509 -219.91015625 324.8046875 C-218.1716822 322.25208142 -216.58686184 319.64779232 -215 317 C-214.360625 316.21625 -213.72125 315.4325 -213.0625 314.625 C-211.0921951 312.11733922 -209.60810732 309.65106028 -208.125 306.84375 C-207 305 -207 305 -205.14453125 302.69921875 C-202.76291086 299.70158726 -200.72012182 296.54940803 -198.6875 293.3125 C-194.94676982 287.42519696 -191.04849983 281.68111165 -187 276 C-181.31631236 267.96219918 -175.83594905 259.80093275 -170.40625 251.58984375 C-167.295135 246.89834852 -164.09753132 242.27764932 -160.85546875 237.67578125 C-158.84000466 234.76926988 -156.88654802 231.82641558 -154.9375 228.875 C-152.63449685 225.39599525 -150.29093772 221.99647935 -147.75 218.6875 C-145.59926998 215.8794423 -143.82191851 213.00889902 -142.1171875 209.90234375 C-139.68466785 205.76025609 -136.78714577 201.90787175 -134 198 C-130.32037164 192.82730736 -126.74079156 187.63380945 -123.375 182.25 C-121.49481631 179.25516602 -119.63335007 176.41862272 -117.3125 173.75 C-115.20619455 171.24520432 -113.71895833 168.74932277 -112.1262207 165.90820312 C-110.26418831 162.75328329 -108.10150692 159.82739325 -105.9375 156.875 C-103.10810528 152.99877128 -100.44595791 149.1348336 -98 145 C-97.360625 144.21625 -96.72125 143.4325 -96.0625 142.625 C-94.14096748 140.17941316 -92.69213986 137.68137372 -91.1706543 134.97949219 C-89.09205961 131.46473813 -86.72072999 128.15234283 -84.375 124.8125 C-83.40122601 123.42487206 -82.42978888 122.03560065 -81.4609375 120.64453125 C-81.03603027 120.03971924 -80.61112305 119.43490723 -80.17333984 118.81176758 C-78.94606474 116.99530377 -78.94606474 116.99530377 -77.96899414 114.89624023 C-76.7214434 112.4548881 -74.9413306 110.92269979 -73 109 C-72.09543572 107.61496982 -71.24323306 106.19476274 -70.4375 104.75 C-65.56919855 96.39727975 -59.9070906 88.54126772 -54.33935547 80.64477539 C-49.50272364 73.77589426 -44.85501785 66.79331407 -40.25 59.76757812 C-36.88668768 54.68131898 -33.38509305 49.80616275 -29.54760742 45.06567383 C-27.44174317 42.25486496 -25.82900425 39.26422654 -24.23828125 36.140625 C-22.731806 33.53637125 -20.89416865 31.3356666 -19 29 C-17.79046071 27.26515968 -16.60421192 25.51392731 -15.4375 23.75 C-14.75042969 22.71875 -14.06335937 21.6875 -13.35546875 20.625 C-11.58156638 17.92395229 -9.87194269 15.18797023 -8.17578125 12.4375 C-7.69117432 11.66180664 -7.20656738 10.88611328 -6.70727539 10.08691406 C-5.74525265 8.54419641 -4.79492301 6.99411752 -3.85717773 5.43652344 C-3.41446533 4.73043945 -2.97175293 4.02435547 -2.515625 3.296875 C-2.12665039 2.66104492 -1.73767578 2.02521484 -1.33691406 1.37011719 C-0.6751416 0.69190918 -0.6751416 0.69190918 0 0 Z " fill="#000000" transform="translate(1391,802)"/>
</svg>
